<mxfile host="app.diagrams.net" agent="Mozilla/5.0 (Windows NT 10.0; Win64; x64) AppleWebKit/537.36 (KHTML, like Gecko) Chrome/138.0.0.0 Safari/537.36" version="28.0.7">
  <diagram id="QE-C1v7ro_E9b9ALu6ty" name="Telegram Bot Flow">
    <mxGraphModel grid="1" page="1" gridSize="10" guides="1" tooltips="1" connect="1" arrows="1" fold="1" pageScale="1" pageWidth="850" pageHeight="1100" math="0" shadow="0">
      <root>
        <mxCell id="0" />
        <mxCell id="1" parent="0" />
        <mxCell id="pGtjoR-2ih055X52a59Z-26" style="edgeStyle=orthogonalEdgeStyle;rounded=0;orthogonalLoop=1;jettySize=auto;html=1;exitX=0;exitY=0.5;exitDx=0;exitDy=0;entryX=1;entryY=0.5;entryDx=0;entryDy=0;" edge="1" parent="1" source="pGtjoR-2ih055X52a59Z-17" target="pGtjoR-2ih055X52a59Z-20">
          <mxGeometry relative="1" as="geometry">
            <mxPoint x="60" y="375" as="sourcePoint" />
          </mxGeometry>
        </mxCell>
        <mxCell id="pGtjoR-2ih055X52a59Z-30" style="edgeStyle=orthogonalEdgeStyle;rounded=0;orthogonalLoop=1;jettySize=auto;html=1;exitX=1;exitY=0.5;exitDx=0;exitDy=0;entryX=0.5;entryY=0;entryDx=0;entryDy=0;" edge="1" parent="1" source="ylh-goKrjrxt4eU4eb-0-3" target="pGtjoR-2ih055X52a59Z-22">
          <mxGeometry relative="1" as="geometry" />
        </mxCell>
        <mxCell id="pGtjoR-2ih055X52a59Z-17" value="Telegram bot" style="rounded=0;whiteSpace=wrap;html=1;" vertex="1" parent="1">
          <mxGeometry x="50" y="360" width="120" height="60" as="geometry" />
        </mxCell>
        <mxCell id="qZ9QD-ZpXlhKsly8Y6b9-206" style="edgeStyle=orthogonalEdgeStyle;rounded=0;orthogonalLoop=1;jettySize=auto;html=1;exitX=0.5;exitY=1;exitDx=0;exitDy=0;entryX=0.5;entryY=0;entryDx=0;entryDy=0;" edge="1" parent="1" source="pGtjoR-2ih055X52a59Z-20" target="ylh-goKrjrxt4eU4eb-0-4">
          <mxGeometry relative="1" as="geometry" />
        </mxCell>
        <mxCell id="pGtjoR-2ih055X52a59Z-20" value="IF First time - Welcome to program, pinned the message if possible" style="rounded=0;whiteSpace=wrap;html=1;" vertex="1" parent="1">
          <mxGeometry x="-170" y="360" width="120" height="60" as="geometry" />
        </mxCell>
        <mxCell id="OITSv9a3_Jy2k-vIYUEM-7" style="edgeStyle=orthogonalEdgeStyle;rounded=0;orthogonalLoop=1;jettySize=auto;html=1;exitX=1;exitY=0.5;exitDx=0;exitDy=0;" edge="1" parent="1" source="pGtjoR-2ih055X52a59Z-21" target="pGtjoR-2ih055X52a59Z-22">
          <mxGeometry relative="1" as="geometry" />
        </mxCell>
        <mxCell id="pGtjoR-2ih055X52a59Z-21" value="Every random messag unless user entering a coupon in purchaseing process. Dont read the message, just sent menu" style="rounded=0;whiteSpace=wrap;html=1;" vertex="1" parent="1">
          <mxGeometry x="-170" y="827.5" width="180" height="115" as="geometry" />
        </mxCell>
        <mxCell id="pGtjoR-2ih055X52a59Z-47" style="edgeStyle=orthogonalEdgeStyle;rounded=0;orthogonalLoop=1;jettySize=auto;html=1;exitX=0.75;exitY=1;exitDx=0;exitDy=0;entryX=0.5;entryY=0;entryDx=0;entryDy=0;" edge="1" parent="1" source="pGtjoR-2ih055X52a59Z-22" target="pGtjoR-2ih055X52a59Z-43">
          <mxGeometry relative="1" as="geometry" />
        </mxCell>
        <mxCell id="ylh-goKrjrxt4eU4eb-0-28" style="edgeStyle=orthogonalEdgeStyle;rounded=0;orthogonalLoop=1;jettySize=auto;html=1;exitX=1;exitY=0.5;exitDx=0;exitDy=0;entryX=0;entryY=0.5;entryDx=0;entryDy=0;" edge="1" parent="1" source="pGtjoR-2ih055X52a59Z-22" target="ylh-goKrjrxt4eU4eb-0-27">
          <mxGeometry relative="1" as="geometry" />
        </mxCell>
        <mxCell id="pGtjoR-2ih055X52a59Z-22" value="&lt;div&gt;if sent by daily data new message then start with &quot;Heres today analysis, have a great day&quot;&amp;nbsp;&lt;/div&gt;&lt;div&gt;if from random message &quot;Here is the menu&quot;&lt;/div&gt;&lt;u&gt;Menu open&lt;/u&gt;&lt;div style=&quot;text-align: left;&quot;&gt;1. show the users stocks analysis by ticker (click a ticker return ana analysis) + plot 60 days back&lt;/div&gt;&lt;div style=&quot;text-align: left;&quot;&gt;2. can create functions that return technical analysis plots about specific stock&lt;/div&gt;&lt;div style=&quot;text-align: left;&quot;&gt;3.user setting (sign up, language, user details change, payment method change, stocks change, weights per stock change)&lt;/div&gt;" style="rounded=0;whiteSpace=wrap;html=1;" vertex="1" parent="1">
          <mxGeometry x="130" y="800" width="270" height="170" as="geometry" />
        </mxCell>
        <mxCell id="ylh-goKrjrxt4eU4eb-0-36" style="edgeStyle=orthogonalEdgeStyle;rounded=0;orthogonalLoop=1;jettySize=auto;html=1;exitX=1;exitY=0.5;exitDx=0;exitDy=0;" edge="1" parent="1" source="pGtjoR-2ih055X52a59Z-38" target="ylh-goKrjrxt4eU4eb-0-35">
          <mxGeometry relative="1" as="geometry" />
        </mxCell>
        <mxCell id="pGtjoR-2ih055X52a59Z-38" value="Ticker pushed - return analysis + graph + daily / weekly change" style="rounded=0;whiteSpace=wrap;html=1;" vertex="1" parent="1">
          <mxGeometry x="1050" y="815" width="120" height="60" as="geometry" />
        </mxCell>
        <mxCell id="ylh-goKrjrxt4eU4eb-0-37" style="edgeStyle=orthogonalEdgeStyle;rounded=0;orthogonalLoop=1;jettySize=auto;html=1;exitX=1;exitY=0.5;exitDx=0;exitDy=0;entryX=0;entryY=0.5;entryDx=0;entryDy=0;" edge="1" parent="1" source="pGtjoR-2ih055X52a59Z-40" target="ylh-goKrjrxt4eU4eb-0-35">
          <mxGeometry relative="1" as="geometry" />
        </mxCell>
        <mxCell id="pGtjoR-2ih055X52a59Z-40" value="Call function trend by format - return the relevant polt" style="rounded=0;whiteSpace=wrap;html=1;" vertex="1" parent="1">
          <mxGeometry x="1050" y="895" width="120" height="60" as="geometry" />
        </mxCell>
        <mxCell id="pGtjoR-2ih055X52a59Z-52" style="edgeStyle=orthogonalEdgeStyle;rounded=0;orthogonalLoop=1;jettySize=auto;html=1;exitX=0.5;exitY=1;exitDx=0;exitDy=0;entryX=0.5;entryY=0;entryDx=0;entryDy=0;" edge="1" parent="1" source="pGtjoR-2ih055X52a59Z-43" target="pGtjoR-2ih055X52a59Z-51">
          <mxGeometry relative="1" as="geometry" />
        </mxCell>
        <mxCell id="pGtjoR-2ih055X52a59Z-55" style="edgeStyle=orthogonalEdgeStyle;rounded=0;orthogonalLoop=1;jettySize=auto;html=1;exitX=1;exitY=0.75;exitDx=0;exitDy=0;entryX=0.25;entryY=0;entryDx=0;entryDy=0;" edge="1" parent="1" source="pGtjoR-2ih055X52a59Z-43" target="pGtjoR-2ih055X52a59Z-53">
          <mxGeometry relative="1" as="geometry" />
        </mxCell>
        <mxCell id="pGtjoR-2ih055X52a59Z-56" style="edgeStyle=orthogonalEdgeStyle;rounded=0;orthogonalLoop=1;jettySize=auto;html=1;exitX=0.25;exitY=1;exitDx=0;exitDy=0;entryX=0.75;entryY=0;entryDx=0;entryDy=0;" edge="1" parent="1" source="pGtjoR-2ih055X52a59Z-43" target="pGtjoR-2ih055X52a59Z-48">
          <mxGeometry relative="1" as="geometry" />
        </mxCell>
        <mxCell id="ylh-goKrjrxt4eU4eb-0-60" style="edgeStyle=orthogonalEdgeStyle;rounded=0;orthogonalLoop=1;jettySize=auto;html=1;exitX=1;exitY=0.25;exitDx=0;exitDy=0;entryX=0.5;entryY=1;entryDx=0;entryDy=0;" edge="1" parent="1" source="pGtjoR-2ih055X52a59Z-43" target="ylh-goKrjrxt4eU4eb-0-59">
          <mxGeometry relative="1" as="geometry" />
        </mxCell>
        <mxCell id="OITSv9a3_Jy2k-vIYUEM-67" style="edgeStyle=orthogonalEdgeStyle;rounded=0;orthogonalLoop=1;jettySize=auto;html=1;exitX=0.75;exitY=1;exitDx=0;exitDy=0;entryX=0.5;entryY=0;entryDx=0;entryDy=0;" edge="1" parent="1" source="pGtjoR-2ih055X52a59Z-43" target="ylh-goKrjrxt4eU4eb-0-2">
          <mxGeometry relative="1" as="geometry" />
        </mxCell>
        <mxCell id="pGtjoR-2ih055X52a59Z-43" value="User setting push - open setting menu" style="rounded=0;whiteSpace=wrap;html=1;" vertex="1" parent="1">
          <mxGeometry x="270" y="1180" width="120" height="60" as="geometry" />
        </mxCell>
        <mxCell id="OITSv9a3_Jy2k-vIYUEM-58" style="edgeStyle=orthogonalEdgeStyle;rounded=0;orthogonalLoop=1;jettySize=auto;html=1;exitX=0.5;exitY=1;exitDx=0;exitDy=0;entryX=0.5;entryY=0;entryDx=0;entryDy=0;" edge="1" parent="1" source="pGtjoR-2ih055X52a59Z-48" target="OITSv9a3_Jy2k-vIYUEM-57">
          <mxGeometry relative="1" as="geometry" />
        </mxCell>
        <mxCell id="pGtjoR-2ih055X52a59Z-48" value="Change&amp;nbsp;&lt;span style=&quot;text-align: left;&quot;&gt;language&lt;/span&gt;" style="rounded=0;whiteSpace=wrap;html=1;" vertex="1" parent="1">
          <mxGeometry x="120" y="1510" width="120" height="60" as="geometry" />
        </mxCell>
        <mxCell id="OITSv9a3_Jy2k-vIYUEM-60" style="edgeStyle=orthogonalEdgeStyle;rounded=0;orthogonalLoop=1;jettySize=auto;html=1;exitX=0.5;exitY=1;exitDx=0;exitDy=0;entryX=0.5;entryY=0;entryDx=0;entryDy=0;" edge="1" parent="1" source="pGtjoR-2ih055X52a59Z-51" target="OITSv9a3_Jy2k-vIYUEM-59">
          <mxGeometry relative="1" as="geometry" />
        </mxCell>
        <mxCell id="pGtjoR-2ih055X52a59Z-51" value="change details" style="rounded=0;whiteSpace=wrap;html=1;" vertex="1" parent="1">
          <mxGeometry x="270" y="1510" width="120" height="60" as="geometry" />
        </mxCell>
        <mxCell id="OITSv9a3_Jy2k-vIYUEM-64" style="edgeStyle=orthogonalEdgeStyle;rounded=0;orthogonalLoop=1;jettySize=auto;html=1;exitX=0.5;exitY=1;exitDx=0;exitDy=0;entryX=0.5;entryY=0;entryDx=0;entryDy=0;" edge="1" parent="1" source="pGtjoR-2ih055X52a59Z-53" target="OITSv9a3_Jy2k-vIYUEM-63">
          <mxGeometry relative="1" as="geometry" />
        </mxCell>
        <mxCell id="pGtjoR-2ih055X52a59Z-53" value="&lt;div style=&quot;text-align: left;&quot;&gt;&lt;span style=&quot;background-color: transparent; color: light-dark(rgb(0, 0, 0), rgb(255, 255, 255));&quot;&gt;Change Stocks&lt;/span&gt;&lt;/div&gt;" style="rounded=0;whiteSpace=wrap;html=1;" vertex="1" parent="1">
          <mxGeometry x="1060" y="1510" width="120" height="60" as="geometry" />
        </mxCell>
        <mxCell id="OITSv9a3_Jy2k-vIYUEM-108" style="edgeStyle=orthogonalEdgeStyle;rounded=0;orthogonalLoop=1;jettySize=auto;html=1;exitX=0.5;exitY=1;exitDx=0;exitDy=0;entryX=0.5;entryY=0;entryDx=0;entryDy=0;" edge="1" parent="1" source="ylh-goKrjrxt4eU4eb-0-2" target="OITSv9a3_Jy2k-vIYUEM-107">
          <mxGeometry relative="1" as="geometry" />
        </mxCell>
        <mxCell id="ylh-goKrjrxt4eU4eb-0-2" value="weights&amp;nbsp;&lt;span style=&quot;text-align: left;&quot;&gt;preferences&lt;/span&gt;&amp;nbsp;- Change&amp;nbsp;" style="rounded=0;whiteSpace=wrap;html=1;" vertex="1" parent="1">
          <mxGeometry x="620" y="1310" width="120" height="60" as="geometry" />
        </mxCell>
        <mxCell id="ylh-goKrjrxt4eU4eb-0-3" value="Yes" style="ellipse;whiteSpace=wrap;html=1;" vertex="1" parent="1">
          <mxGeometry x="-100" y="700" width="120" height="80" as="geometry" />
        </mxCell>
        <mxCell id="ylh-goKrjrxt4eU4eb-0-7" style="edgeStyle=orthogonalEdgeStyle;rounded=0;orthogonalLoop=1;jettySize=auto;html=1;exitX=0;exitY=0.25;exitDx=0;exitDy=0;" edge="1" parent="1" source="ylh-goKrjrxt4eU4eb-0-4" target="ylh-goKrjrxt4eU4eb-0-6">
          <mxGeometry relative="1" as="geometry" />
        </mxCell>
        <mxCell id="ylh-goKrjrxt4eU4eb-0-8" style="edgeStyle=orthogonalEdgeStyle;rounded=0;orthogonalLoop=1;jettySize=auto;html=1;exitX=0.5;exitY=1;exitDx=0;exitDy=0;entryX=0.5;entryY=0;entryDx=0;entryDy=0;" edge="1" parent="1" source="ylh-goKrjrxt4eU4eb-0-4" target="ylh-goKrjrxt4eU4eb-0-3">
          <mxGeometry relative="1" as="geometry">
            <mxPoint x="-110" y="590" as="targetPoint" />
          </mxGeometry>
        </mxCell>
        <mxCell id="ylh-goKrjrxt4eU4eb-0-4" value="Check if the user is assign to the system &amp;amp; Valid paid/free plan&amp;nbsp;" style="rounded=0;whiteSpace=wrap;html=1;" vertex="1" parent="1">
          <mxGeometry x="-170" y="550" width="120" height="60" as="geometry" />
        </mxCell>
        <mxCell id="ylh-goKrjrxt4eU4eb-0-15" style="edgeStyle=orthogonalEdgeStyle;rounded=0;orthogonalLoop=1;jettySize=auto;html=1;exitX=0;exitY=0.5;exitDx=0;exitDy=0;entryX=1;entryY=0.5;entryDx=0;entryDy=0;" edge="1" parent="1" source="ylh-goKrjrxt4eU4eb-0-6" target="ylh-goKrjrxt4eU4eb-0-14">
          <mxGeometry relative="1" as="geometry" />
        </mxCell>
        <mxCell id="ylh-goKrjrxt4eU4eb-0-6" value="No" style="ellipse;whiteSpace=wrap;html=1;" vertex="1" parent="1">
          <mxGeometry x="-350" y="430" width="120" height="80" as="geometry" />
        </mxCell>
        <mxCell id="qZ9QD-ZpXlhKsly8Y6b9-189" style="edgeStyle=orthogonalEdgeStyle;rounded=0;orthogonalLoop=1;jettySize=auto;html=1;exitX=0.75;exitY=1;exitDx=0;exitDy=0;entryX=0.5;entryY=0;entryDx=0;entryDy=0;" edge="1" parent="1" source="ylh-goKrjrxt4eU4eb-0-14" target="ylh-goKrjrxt4eU4eb-0-16">
          <mxGeometry relative="1" as="geometry" />
        </mxCell>
        <mxCell id="ylh-goKrjrxt4eU4eb-0-14" value="sign up / sing in &amp;amp; Authenticate via phone message" style="rounded=0;whiteSpace=wrap;html=1;" vertex="1" parent="1">
          <mxGeometry x="-520" y="470" width="120" height="60" as="geometry" />
        </mxCell>
        <mxCell id="qZ9QD-ZpXlhKsly8Y6b9-190" style="edgeStyle=orthogonalEdgeStyle;rounded=0;orthogonalLoop=1;jettySize=auto;html=1;exitX=0.5;exitY=1;exitDx=0;exitDy=0;entryX=0.75;entryY=0;entryDx=0;entryDy=0;" edge="1" parent="1" source="ylh-goKrjrxt4eU4eb-0-16" target="qZ9QD-ZpXlhKsly8Y6b9-181">
          <mxGeometry relative="1" as="geometry" />
        </mxCell>
        <mxCell id="ylh-goKrjrxt4eU4eb-0-16" value="Successful sign in" style="rounded=0;whiteSpace=wrap;html=1;" vertex="1" parent="1">
          <mxGeometry x="-490" y="640" width="120" height="60" as="geometry" />
        </mxCell>
        <mxCell id="ylh-goKrjrxt4eU4eb-0-20" style="edgeStyle=orthogonalEdgeStyle;rounded=0;orthogonalLoop=1;jettySize=auto;html=1;exitX=0.75;exitY=0;exitDx=0;exitDy=0;entryX=0;entryY=0.5;entryDx=0;entryDy=0;" edge="1" parent="1" source="ylh-goKrjrxt4eU4eb-0-19" target="ylh-goKrjrxt4eU4eb-0-22">
          <mxGeometry relative="1" as="geometry" />
        </mxCell>
        <mxCell id="ylh-goKrjrxt4eU4eb-0-19" value="message why he couldn&#39;t sign in and return to sing in" style="rounded=0;whiteSpace=wrap;html=1;" vertex="1" parent="1">
          <mxGeometry x="-840" y="470" width="120" height="60" as="geometry" />
        </mxCell>
        <mxCell id="ylh-goKrjrxt4eU4eb-0-23" style="edgeStyle=orthogonalEdgeStyle;rounded=0;orthogonalLoop=1;jettySize=auto;html=1;exitX=1;exitY=0.5;exitDx=0;exitDy=0;entryX=0.5;entryY=0;entryDx=0;entryDy=0;" edge="1" parent="1" source="ylh-goKrjrxt4eU4eb-0-22" target="ylh-goKrjrxt4eU4eb-0-14">
          <mxGeometry relative="1" as="geometry" />
        </mxCell>
        <mxCell id="ylh-goKrjrxt4eU4eb-0-24" style="edgeStyle=orthogonalEdgeStyle;rounded=0;orthogonalLoop=1;jettySize=auto;html=1;exitX=0.5;exitY=0;exitDx=0;exitDy=0;entryX=0.5;entryY=1;entryDx=0;entryDy=0;" edge="1" parent="1" source="ylh-goKrjrxt4eU4eb-0-22" target="ylh-goKrjrxt4eU4eb-0-25">
          <mxGeometry relative="1" as="geometry">
            <mxPoint x="-555" y="240" as="targetPoint" />
          </mxGeometry>
        </mxCell>
        <mxCell id="ylh-goKrjrxt4eU4eb-0-22" value="Count amount of attempts -&amp;nbsp; if go over 15 give a 30 min cooldown" style="rounded=0;whiteSpace=wrap;html=1;" vertex="1" parent="1">
          <mxGeometry x="-615" y="290" width="120" height="80" as="geometry" />
        </mxCell>
        <mxCell id="ylh-goKrjrxt4eU4eb-0-25" value="Cooldown message" style="rounded=0;whiteSpace=wrap;html=1;" vertex="1" parent="1">
          <mxGeometry x="-615" y="150" width="120" height="60" as="geometry" />
        </mxCell>
        <mxCell id="ylh-goKrjrxt4eU4eb-0-32" style="edgeStyle=orthogonalEdgeStyle;rounded=0;orthogonalLoop=1;jettySize=auto;html=1;exitX=1;exitY=0.5;exitDx=0;exitDy=0;" edge="1" parent="1" source="ylh-goKrjrxt4eU4eb-0-27" target="ylh-goKrjrxt4eU4eb-0-31">
          <mxGeometry relative="1" as="geometry" />
        </mxCell>
        <mxCell id="ylh-goKrjrxt4eU4eb-0-27" value="User input in conversion or click 1,2" style="ellipse;whiteSpace=wrap;html=1;" vertex="1" parent="1">
          <mxGeometry x="450" y="845" width="120" height="80" as="geometry" />
        </mxCell>
        <mxCell id="ylh-goKrjrxt4eU4eb-0-33" style="edgeStyle=orthogonalEdgeStyle;rounded=0;orthogonalLoop=1;jettySize=auto;html=1;entryX=0;entryY=0.5;entryDx=0;entryDy=0;exitX=0;exitY=0;exitDx=130;exitDy=30;exitPerimeter=0;" edge="1" parent="1" source="ylh-goKrjrxt4eU4eb-0-74" target="pGtjoR-2ih055X52a59Z-38">
          <mxGeometry relative="1" as="geometry">
            <mxPoint x="930" y="860" as="sourcePoint" />
          </mxGeometry>
        </mxCell>
        <mxCell id="ylh-goKrjrxt4eU4eb-0-34" style="edgeStyle=orthogonalEdgeStyle;rounded=0;orthogonalLoop=1;jettySize=auto;html=1;exitX=0;exitY=0;exitDx=130;exitDy=65;entryX=0;entryY=0.5;entryDx=0;entryDy=0;exitPerimeter=0;" edge="1" parent="1" source="ylh-goKrjrxt4eU4eb-0-74" target="pGtjoR-2ih055X52a59Z-40">
          <mxGeometry relative="1" as="geometry">
            <mxPoint x="900" y="900" as="sourcePoint" />
          </mxGeometry>
        </mxCell>
        <mxCell id="ylh-goKrjrxt4eU4eb-0-69" style="edgeStyle=orthogonalEdgeStyle;rounded=0;orthogonalLoop=1;jettySize=auto;html=1;exitX=0.5;exitY=0;exitDx=0;exitDy=0;" edge="1" parent="1" source="ylh-goKrjrxt4eU4eb-0-31">
          <mxGeometry relative="1" as="geometry">
            <mxPoint x="690" y="810" as="targetPoint" />
          </mxGeometry>
        </mxCell>
        <mxCell id="ylh-goKrjrxt4eU4eb-0-72" style="edgeStyle=orthogonalEdgeStyle;rounded=0;orthogonalLoop=1;jettySize=auto;html=1;exitX=1;exitY=0.5;exitDx=0;exitDy=0;entryX=0;entryY=0.5;entryDx=0;entryDy=0;" edge="1" parent="1" source="ylh-goKrjrxt4eU4eb-0-31">
          <mxGeometry relative="1" as="geometry">
            <mxPoint x="780" y="885" as="targetPoint" />
          </mxGeometry>
        </mxCell>
        <mxCell id="ylh-goKrjrxt4eU4eb-0-31" value="Check input not&amp;nbsp;malicious if insert a message&amp;nbsp;" style="rounded=0;whiteSpace=wrap;html=1;" vertex="1" parent="1">
          <mxGeometry x="630" y="855" width="120" height="60" as="geometry" />
        </mxCell>
        <mxCell id="ylh-goKrjrxt4eU4eb-0-41" style="edgeStyle=orthogonalEdgeStyle;rounded=0;orthogonalLoop=1;jettySize=auto;html=1;exitX=1;exitY=0.5;exitDx=0;exitDy=0;entryX=0;entryY=0.5;entryDx=0;entryDy=0;" edge="1" parent="1" source="ylh-goKrjrxt4eU4eb-0-35" target="ylh-goKrjrxt4eU4eb-0-40">
          <mxGeometry relative="1" as="geometry" />
        </mxCell>
        <mxCell id="ylh-goKrjrxt4eU4eb-0-35" value="Output for the user" style="ellipse;whiteSpace=wrap;html=1;" vertex="1" parent="1">
          <mxGeometry x="1270" y="835" width="120" height="80" as="geometry" />
        </mxCell>
        <mxCell id="ylh-goKrjrxt4eU4eb-0-40" value="send a message &quot;Request complete, here is the menu if needed&quot;" style="rounded=0;whiteSpace=wrap;html=1;" vertex="1" parent="1">
          <mxGeometry x="1440" y="802.5" width="220" height="145" as="geometry" />
        </mxCell>
        <mxCell id="ylh-goKrjrxt4eU4eb-0-48" style="edgeStyle=orthogonalEdgeStyle;rounded=0;orthogonalLoop=1;jettySize=auto;html=1;exitX=0.5;exitY=1;exitDx=0;exitDy=0;entryX=0.5;entryY=0;entryDx=0;entryDy=0;" edge="1" parent="1" source="ylh-goKrjrxt4eU4eb-0-42" target="ylh-goKrjrxt4eU4eb-0-47">
          <mxGeometry relative="1" as="geometry" />
        </mxCell>
        <mxCell id="ylh-goKrjrxt4eU4eb-0-42" value="Check input not&amp;nbsp;malicious if insert a message&amp;nbsp;" style="rounded=0;whiteSpace=wrap;html=1;" vertex="1" parent="1">
          <mxGeometry x="350" y="1880" width="120" height="60" as="geometry" />
        </mxCell>
        <mxCell id="ylh-goKrjrxt4eU4eb-0-50" style="edgeStyle=orthogonalEdgeStyle;rounded=0;orthogonalLoop=1;jettySize=auto;html=1;exitX=0.5;exitY=1;exitDx=0;exitDy=0;entryX=0.5;entryY=0;entryDx=0;entryDy=0;" edge="1" parent="1" source="ylh-goKrjrxt4eU4eb-0-47" target="ylh-goKrjrxt4eU4eb-0-49">
          <mxGeometry relative="1" as="geometry" />
        </mxCell>
        <mxCell id="ylh-goKrjrxt4eU4eb-0-47" value="Check the input fit for the correct format" style="rounded=0;whiteSpace=wrap;html=1;" vertex="1" parent="1">
          <mxGeometry x="350" y="1970" width="120" height="60" as="geometry" />
        </mxCell>
        <mxCell id="ylh-goKrjrxt4eU4eb-0-57" style="edgeStyle=orthogonalEdgeStyle;rounded=0;orthogonalLoop=1;jettySize=auto;html=1;exitX=1;exitY=0.5;exitDx=0;exitDy=0;entryX=0.5;entryY=0;entryDx=0;entryDy=0;" edge="1" parent="1" source="ylh-goKrjrxt4eU4eb-0-49" target="ylh-goKrjrxt4eU4eb-0-52">
          <mxGeometry relative="1" as="geometry" />
        </mxCell>
        <mxCell id="ylh-goKrjrxt4eU4eb-0-49" value="Show the change and give the user option to accept or not" style="rounded=0;whiteSpace=wrap;html=1;" vertex="1" parent="1">
          <mxGeometry x="350" y="2080" width="120" height="60" as="geometry" />
        </mxCell>
        <mxCell id="ylh-goKrjrxt4eU4eb-0-56" style="edgeStyle=orthogonalEdgeStyle;rounded=0;orthogonalLoop=1;jettySize=auto;html=1;exitX=0;exitY=0.5;exitDx=0;exitDy=0;entryX=0;entryY=0.5;entryDx=0;entryDy=0;" edge="1" parent="1" source="ylh-goKrjrxt4eU4eb-0-51" target="pGtjoR-2ih055X52a59Z-43">
          <mxGeometry relative="1" as="geometry">
            <Array as="points">
              <mxPoint x="230" y="2070" />
              <mxPoint x="20" y="2070" />
              <mxPoint x="20" y="1210" />
            </Array>
          </mxGeometry>
        </mxCell>
        <mxCell id="ylh-goKrjrxt4eU4eb-0-51" value="No" style="ellipse;whiteSpace=wrap;html=1;" vertex="1" parent="1">
          <mxGeometry x="230" y="2150" width="120" height="80" as="geometry" />
        </mxCell>
        <mxCell id="ylh-goKrjrxt4eU4eb-0-54" style="edgeStyle=orthogonalEdgeStyle;rounded=0;orthogonalLoop=1;jettySize=auto;html=1;exitX=0.5;exitY=1;exitDx=0;exitDy=0;entryX=0.5;entryY=0;entryDx=0;entryDy=0;" edge="1" parent="1" source="ylh-goKrjrxt4eU4eb-0-52" target="ylh-goKrjrxt4eU4eb-0-53">
          <mxGeometry relative="1" as="geometry" />
        </mxCell>
        <mxCell id="ylh-goKrjrxt4eU4eb-0-52" value="Yes" style="ellipse;whiteSpace=wrap;html=1;" vertex="1" parent="1">
          <mxGeometry x="460" y="2150" width="120" height="80" as="geometry" />
        </mxCell>
        <mxCell id="ylh-goKrjrxt4eU4eb-0-61" style="edgeStyle=orthogonalEdgeStyle;rounded=0;orthogonalLoop=1;jettySize=auto;html=1;exitX=0;exitY=0.5;exitDx=0;exitDy=0;entryX=0;entryY=0;entryDx=130;entryDy=65;entryPerimeter=0;" edge="1" parent="1" source="ylh-goKrjrxt4eU4eb-0-53" target="ylh-goKrjrxt4eU4eb-0-75">
          <mxGeometry relative="1" as="geometry">
            <Array as="points">
              <mxPoint x="390" y="2300" />
              <mxPoint x="390" y="2325" />
            </Array>
          </mxGeometry>
        </mxCell>
        <mxCell id="ylh-goKrjrxt4eU4eb-0-53" value="Change" style="rounded=0;whiteSpace=wrap;html=1;" vertex="1" parent="1">
          <mxGeometry x="460" y="2270" width="120" height="60" as="geometry" />
        </mxCell>
        <mxCell id="ylh-goKrjrxt4eU4eb-0-55" style="edgeStyle=orthogonalEdgeStyle;rounded=0;orthogonalLoop=1;jettySize=auto;html=1;exitX=0;exitY=0.5;exitDx=0;exitDy=0;entryX=0.558;entryY=-0.025;entryDx=0;entryDy=0;entryPerimeter=0;" edge="1" parent="1" source="ylh-goKrjrxt4eU4eb-0-49" target="ylh-goKrjrxt4eU4eb-0-51">
          <mxGeometry relative="1" as="geometry" />
        </mxCell>
        <mxCell id="ylh-goKrjrxt4eU4eb-0-62" style="edgeStyle=orthogonalEdgeStyle;rounded=0;orthogonalLoop=1;jettySize=auto;html=1;exitX=0.25;exitY=0;exitDx=0;exitDy=0;entryX=1;entryY=1;entryDx=0;entryDy=0;" edge="1" parent="1" source="ylh-goKrjrxt4eU4eb-0-59" target="pGtjoR-2ih055X52a59Z-22">
          <mxGeometry relative="1" as="geometry" />
        </mxCell>
        <mxCell id="ylh-goKrjrxt4eU4eb-0-59" value="Push Return to menu" style="rounded=0;whiteSpace=wrap;html=1;" vertex="1" parent="1">
          <mxGeometry x="460" y="1030" width="120" height="60" as="geometry" />
        </mxCell>
        <mxCell id="ylh-goKrjrxt4eU4eb-0-71" value="" style="edgeStyle=orthogonalEdgeStyle;rounded=0;orthogonalLoop=1;jettySize=auto;html=1;" edge="1" parent="1" source="ylh-goKrjrxt4eU4eb-0-70" target="ylh-goKrjrxt4eU4eb-0-31">
          <mxGeometry relative="1" as="geometry" />
        </mxCell>
        <mxCell id="ylh-goKrjrxt4eU4eb-0-70" value="If wrong input -send Wrong input" style="rounded=0;whiteSpace=wrap;html=1;" vertex="1" parent="1">
          <mxGeometry x="630" y="750" width="120" height="60" as="geometry" />
        </mxCell>
        <mxCell id="ylh-goKrjrxt4eU4eb-0-74" value="Write action to db" style="shape=note;whiteSpace=wrap;html=1;backgroundOutline=1;darkOpacity=0.05;" vertex="1" parent="1">
          <mxGeometry x="780" y="825" width="130" height="100" as="geometry" />
        </mxCell>
        <mxCell id="ylh-goKrjrxt4eU4eb-0-76" style="edgeStyle=orthogonalEdgeStyle;rounded=0;orthogonalLoop=1;jettySize=auto;html=1;exitX=0;exitY=0.5;exitDx=0;exitDy=0;exitPerimeter=0;entryX=0;entryY=0;entryDx=0;entryDy=0;" edge="1" parent="1" source="ylh-goKrjrxt4eU4eb-0-75" target="pGtjoR-2ih055X52a59Z-43">
          <mxGeometry relative="1" as="geometry">
            <Array as="points">
              <mxPoint x="190" y="2190" />
              <mxPoint x="-60" y="2190" />
              <mxPoint x="-60" y="1180" />
            </Array>
          </mxGeometry>
        </mxCell>
        <mxCell id="ylh-goKrjrxt4eU4eb-0-75" value="Write action to db&lt;div&gt;-&lt;/div&gt;&lt;div&gt;details_changed&lt;/div&gt;" style="shape=note;whiteSpace=wrap;html=1;backgroundOutline=1;darkOpacity=0.05;" vertex="1" parent="1">
          <mxGeometry x="190" y="2260" width="130" height="100" as="geometry" />
        </mxCell>
        <mxCell id="ylh-goKrjrxt4eU4eb-0-77" value="Write action to db&lt;div&gt;&amp;nbsp;-&amp;nbsp;&lt;/div&gt;&lt;div&gt;first_connection&lt;/div&gt;" style="shape=note;whiteSpace=wrap;html=1;backgroundOutline=1;darkOpacity=0.05;" vertex="1" parent="1">
          <mxGeometry x="-175" y="150" width="130" height="100" as="geometry" />
        </mxCell>
        <mxCell id="ylh-goKrjrxt4eU4eb-0-78" style="edgeStyle=orthogonalEdgeStyle;rounded=0;orthogonalLoop=1;jettySize=auto;html=1;exitX=0.5;exitY=0;exitDx=0;exitDy=0;entryX=0.5;entryY=1;entryDx=0;entryDy=0;entryPerimeter=0;" edge="1" parent="1" source="pGtjoR-2ih055X52a59Z-20" target="ylh-goKrjrxt4eU4eb-0-77">
          <mxGeometry relative="1" as="geometry" />
        </mxCell>
        <object c4Name="Bot Process" c4Type="ContainerDiagramTitle" c4Description="Run live" label="&lt;font style=&quot;font-size: 30px&quot;&gt;&lt;b&gt;&lt;div style=&quot;text-align: left&quot;&gt;%c4Name%&lt;/div&gt;&lt;/b&gt;&lt;/font&gt;&lt;div style=&quot;text-align: left&quot;&gt;%c4Description%&lt;/div&gt;" placeholders="1" id="qZ9QD-ZpXlhKsly8Y6b9-4">
          <mxCell style="text;html=1;strokeColor=none;fillColor=none;align=left;verticalAlign=top;whiteSpace=wrap;rounded=0;metaEdit=1;allowArrows=0;resizable=1;rotatable=0;connectable=0;recursiveResize=0;expand=0;pointerEvents=0;points=[[0.25,0,0],[0.5,0,0],[0.75,0,0],[1,0.25,0],[1,0.5,0],[1,0.75,0],[0.75,1,0],[0.5,1,0],[0.25,1,0],[0,0.75,0],[0,0.5,0],[0,0.25,0]];" vertex="1" parent="1">
            <mxGeometry x="60" y="110" width="200" height="110" as="geometry" />
          </mxCell>
        </object>
        <mxCell id="qZ9QD-ZpXlhKsly8Y6b9-56" value="&lt;b&gt;&lt;font style=&quot;font-size: 24px;&quot;&gt;Table in DB&lt;/font&gt;&lt;/b&gt;" style="shape=note;whiteSpace=wrap;html=1;backgroundOutline=1;darkOpacity=0.05;" vertex="1" parent="1">
          <mxGeometry x="-2340" y="260" width="185" height="100" as="geometry" />
        </mxCell>
        <mxCell id="qZ9QD-ZpXlhKsly8Y6b9-131" value="event_type (types)" style="shape=table;startSize=30;container=1;collapsible=0;childLayout=tableLayout;" vertex="1" parent="1">
          <mxGeometry x="-2550" y="700" width="160" height="510" as="geometry" />
        </mxCell>
        <mxCell id="qZ9QD-ZpXlhKsly8Y6b9-132" value="" style="shape=tableRow;horizontal=0;startSize=0;swimlaneHead=0;swimlaneBody=0;strokeColor=inherit;top=0;left=0;bottom=0;right=0;collapsible=0;dropTarget=0;fillColor=none;points=[[0,0.5],[1,0.5]];portConstraint=eastwest;" vertex="1" parent="qZ9QD-ZpXlhKsly8Y6b9-131">
          <mxGeometry y="30" width="160" height="40" as="geometry" />
        </mxCell>
        <mxCell id="qZ9QD-ZpXlhKsly8Y6b9-133" value="first_connection" style="shape=partialRectangle;html=1;whiteSpace=wrap;connectable=0;strokeColor=inherit;overflow=hidden;fillColor=none;top=0;left=0;bottom=0;right=0;pointerEvents=1;" vertex="1" parent="qZ9QD-ZpXlhKsly8Y6b9-132">
          <mxGeometry width="160" height="40" as="geometry">
            <mxRectangle width="160" height="40" as="alternateBounds" />
          </mxGeometry>
        </mxCell>
        <mxCell id="qZ9QD-ZpXlhKsly8Y6b9-134" value="" style="shape=tableRow;horizontal=0;startSize=0;swimlaneHead=0;swimlaneBody=0;strokeColor=inherit;top=0;left=0;bottom=0;right=0;collapsible=0;dropTarget=0;fillColor=none;points=[[0,0.5],[1,0.5]];portConstraint=eastwest;" vertex="1" parent="qZ9QD-ZpXlhKsly8Y6b9-131">
          <mxGeometry y="70" width="160" height="40" as="geometry" />
        </mxCell>
        <mxCell id="qZ9QD-ZpXlhKsly8Y6b9-135" value="sign_in_granted" style="shape=partialRectangle;html=1;whiteSpace=wrap;connectable=0;strokeColor=inherit;overflow=hidden;fillColor=none;top=0;left=0;bottom=0;right=0;pointerEvents=1;" vertex="1" parent="qZ9QD-ZpXlhKsly8Y6b9-134">
          <mxGeometry width="160" height="40" as="geometry">
            <mxRectangle width="160" height="40" as="alternateBounds" />
          </mxGeometry>
        </mxCell>
        <mxCell id="qZ9QD-ZpXlhKsly8Y6b9-136" value="" style="shape=tableRow;horizontal=0;startSize=0;swimlaneHead=0;swimlaneBody=0;strokeColor=inherit;top=0;left=0;bottom=0;right=0;collapsible=0;dropTarget=0;fillColor=none;points=[[0,0.5],[1,0.5]];portConstraint=eastwest;" vertex="1" parent="qZ9QD-ZpXlhKsly8Y6b9-131">
          <mxGeometry y="110" width="160" height="40" as="geometry" />
        </mxCell>
        <mxCell id="qZ9QD-ZpXlhKsly8Y6b9-137" value="sign_up_granted" style="shape=partialRectangle;html=1;whiteSpace=wrap;connectable=0;strokeColor=inherit;overflow=hidden;fillColor=none;top=0;left=0;bottom=0;right=0;pointerEvents=1;" vertex="1" parent="qZ9QD-ZpXlhKsly8Y6b9-136">
          <mxGeometry width="160" height="40" as="geometry">
            <mxRectangle width="160" height="40" as="alternateBounds" />
          </mxGeometry>
        </mxCell>
        <mxCell id="qZ9QD-ZpXlhKsly8Y6b9-138" value="" style="shape=tableRow;horizontal=0;startSize=0;swimlaneHead=0;swimlaneBody=0;strokeColor=inherit;top=0;left=0;bottom=0;right=0;collapsible=0;dropTarget=0;fillColor=none;points=[[0,0.5],[1,0.5]];portConstraint=eastwest;" vertex="1" parent="qZ9QD-ZpXlhKsly8Y6b9-131">
          <mxGeometry y="150" width="160" height="40" as="geometry" />
        </mxCell>
        <mxCell id="qZ9QD-ZpXlhKsly8Y6b9-139" value="cooldown_attempts" style="shape=partialRectangle;html=1;whiteSpace=wrap;connectable=0;strokeColor=inherit;overflow=hidden;fillColor=none;top=0;left=0;bottom=0;right=0;pointerEvents=1;" vertex="1" parent="qZ9QD-ZpXlhKsly8Y6b9-138">
          <mxGeometry width="160" height="40" as="geometry">
            <mxRectangle width="160" height="40" as="alternateBounds" />
          </mxGeometry>
        </mxCell>
        <mxCell id="qZ9QD-ZpXlhKsly8Y6b9-140" value="" style="shape=tableRow;horizontal=0;startSize=0;swimlaneHead=0;swimlaneBody=0;strokeColor=inherit;top=0;left=0;bottom=0;right=0;collapsible=0;dropTarget=0;fillColor=none;points=[[0,0.5],[1,0.5]];portConstraint=eastwest;" vertex="1" parent="qZ9QD-ZpXlhKsly8Y6b9-131">
          <mxGeometry y="190" width="160" height="40" as="geometry" />
        </mxCell>
        <mxCell id="qZ9QD-ZpXlhKsly8Y6b9-141" value="daily_message_sent" style="shape=partialRectangle;html=1;whiteSpace=wrap;connectable=0;strokeColor=inherit;overflow=hidden;fillColor=none;top=0;left=0;bottom=0;right=0;pointerEvents=1;" vertex="1" parent="qZ9QD-ZpXlhKsly8Y6b9-140">
          <mxGeometry width="160" height="40" as="geometry">
            <mxRectangle width="160" height="40" as="alternateBounds" />
          </mxGeometry>
        </mxCell>
        <mxCell id="qZ9QD-ZpXlhKsly8Y6b9-142" value="" style="shape=tableRow;horizontal=0;startSize=0;swimlaneHead=0;swimlaneBody=0;strokeColor=inherit;top=0;left=0;bottom=0;right=0;collapsible=0;dropTarget=0;fillColor=none;points=[[0,0.5],[1,0.5]];portConstraint=eastwest;" vertex="1" parent="qZ9QD-ZpXlhKsly8Y6b9-131">
          <mxGeometry y="230" width="160" height="40" as="geometry" />
        </mxCell>
        <mxCell id="qZ9QD-ZpXlhKsly8Y6b9-143" value="menu_sent" style="shape=partialRectangle;html=1;whiteSpace=wrap;connectable=0;strokeColor=inherit;overflow=hidden;fillColor=none;top=0;left=0;bottom=0;right=0;pointerEvents=1;" vertex="1" parent="qZ9QD-ZpXlhKsly8Y6b9-142">
          <mxGeometry width="160" height="40" as="geometry">
            <mxRectangle width="160" height="40" as="alternateBounds" />
          </mxGeometry>
        </mxCell>
        <mxCell id="qZ9QD-ZpXlhKsly8Y6b9-144" value="" style="shape=tableRow;horizontal=0;startSize=0;swimlaneHead=0;swimlaneBody=0;strokeColor=inherit;top=0;left=0;bottom=0;right=0;collapsible=0;dropTarget=0;fillColor=none;points=[[0,0.5],[1,0.5]];portConstraint=eastwest;" vertex="1" parent="qZ9QD-ZpXlhKsly8Y6b9-131">
          <mxGeometry y="270" width="160" height="40" as="geometry" />
        </mxCell>
        <mxCell id="qZ9QD-ZpXlhKsly8Y6b9-145" value="function_write_call" style="shape=partialRectangle;html=1;whiteSpace=wrap;connectable=0;strokeColor=inherit;overflow=hidden;fillColor=none;top=0;left=0;bottom=0;right=0;pointerEvents=1;" vertex="1" parent="qZ9QD-ZpXlhKsly8Y6b9-144">
          <mxGeometry width="160" height="40" as="geometry">
            <mxRectangle width="160" height="40" as="alternateBounds" />
          </mxGeometry>
        </mxCell>
        <mxCell id="qZ9QD-ZpXlhKsly8Y6b9-146" value="" style="shape=tableRow;horizontal=0;startSize=0;swimlaneHead=0;swimlaneBody=0;strokeColor=inherit;top=0;left=0;bottom=0;right=0;collapsible=0;dropTarget=0;fillColor=none;points=[[0,0.5],[1,0.5]];portConstraint=eastwest;" vertex="1" parent="qZ9QD-ZpXlhKsly8Y6b9-131">
          <mxGeometry y="310" width="160" height="40" as="geometry" />
        </mxCell>
        <mxCell id="qZ9QD-ZpXlhKsly8Y6b9-147" value="stock_analysis_pushed" style="shape=partialRectangle;html=1;whiteSpace=wrap;connectable=0;strokeColor=inherit;overflow=hidden;fillColor=none;top=0;left=0;bottom=0;right=0;pointerEvents=1;" vertex="1" parent="qZ9QD-ZpXlhKsly8Y6b9-146">
          <mxGeometry width="160" height="40" as="geometry">
            <mxRectangle width="160" height="40" as="alternateBounds" />
          </mxGeometry>
        </mxCell>
        <mxCell id="qZ9QD-ZpXlhKsly8Y6b9-148" value="" style="shape=tableRow;horizontal=0;startSize=0;swimlaneHead=0;swimlaneBody=0;strokeColor=inherit;top=0;left=0;bottom=0;right=0;collapsible=0;dropTarget=0;fillColor=none;points=[[0,0.5],[1,0.5]];portConstraint=eastwest;" vertex="1" parent="qZ9QD-ZpXlhKsly8Y6b9-131">
          <mxGeometry y="350" width="160" height="40" as="geometry" />
        </mxCell>
        <mxCell id="qZ9QD-ZpXlhKsly8Y6b9-149" value="details_changed" style="shape=partialRectangle;html=1;whiteSpace=wrap;connectable=0;strokeColor=inherit;overflow=hidden;fillColor=none;top=0;left=0;bottom=0;right=0;pointerEvents=1;" vertex="1" parent="qZ9QD-ZpXlhKsly8Y6b9-148">
          <mxGeometry width="160" height="40" as="geometry">
            <mxRectangle width="160" height="40" as="alternateBounds" />
          </mxGeometry>
        </mxCell>
        <mxCell id="qZ9QD-ZpXlhKsly8Y6b9-170" style="shape=tableRow;horizontal=0;startSize=0;swimlaneHead=0;swimlaneBody=0;strokeColor=inherit;top=0;left=0;bottom=0;right=0;collapsible=0;dropTarget=0;fillColor=none;points=[[0,0.5],[1,0.5]];portConstraint=eastwest;" vertex="1" parent="qZ9QD-ZpXlhKsly8Y6b9-131">
          <mxGeometry y="390" width="160" height="40" as="geometry" />
        </mxCell>
        <mxCell id="qZ9QD-ZpXlhKsly8Y6b9-171" value="purchase_start" style="shape=partialRectangle;html=1;whiteSpace=wrap;connectable=0;strokeColor=inherit;overflow=hidden;fillColor=none;top=0;left=0;bottom=0;right=0;pointerEvents=1;" vertex="1" parent="qZ9QD-ZpXlhKsly8Y6b9-170">
          <mxGeometry width="160" height="40" as="geometry">
            <mxRectangle width="160" height="40" as="alternateBounds" />
          </mxGeometry>
        </mxCell>
        <mxCell id="qZ9QD-ZpXlhKsly8Y6b9-1228" style="shape=tableRow;horizontal=0;startSize=0;swimlaneHead=0;swimlaneBody=0;strokeColor=inherit;top=0;left=0;bottom=0;right=0;collapsible=0;dropTarget=0;fillColor=none;points=[[0,0.5],[1,0.5]];portConstraint=eastwest;" vertex="1" parent="qZ9QD-ZpXlhKsly8Y6b9-131">
          <mxGeometry y="430" width="160" height="40" as="geometry" />
        </mxCell>
        <mxCell id="qZ9QD-ZpXlhKsly8Y6b9-1229" value="purchase_shown" style="shape=partialRectangle;html=1;whiteSpace=wrap;connectable=0;strokeColor=inherit;overflow=hidden;fillColor=none;top=0;left=0;bottom=0;right=0;pointerEvents=1;" vertex="1" parent="qZ9QD-ZpXlhKsly8Y6b9-1228">
          <mxGeometry width="160" height="40" as="geometry">
            <mxRectangle width="160" height="40" as="alternateBounds" />
          </mxGeometry>
        </mxCell>
        <mxCell id="qZ9QD-ZpXlhKsly8Y6b9-1270" style="shape=tableRow;horizontal=0;startSize=0;swimlaneHead=0;swimlaneBody=0;strokeColor=inherit;top=0;left=0;bottom=0;right=0;collapsible=0;dropTarget=0;fillColor=none;points=[[0,0.5],[1,0.5]];portConstraint=eastwest;" vertex="1" parent="qZ9QD-ZpXlhKsly8Y6b9-131">
          <mxGeometry y="470" width="160" height="40" as="geometry" />
        </mxCell>
        <mxCell id="qZ9QD-ZpXlhKsly8Y6b9-1271" value="product_choose" style="shape=partialRectangle;html=1;whiteSpace=wrap;connectable=0;strokeColor=inherit;overflow=hidden;fillColor=none;top=0;left=0;bottom=0;right=0;pointerEvents=1;" vertex="1" parent="qZ9QD-ZpXlhKsly8Y6b9-1270">
          <mxGeometry width="160" height="40" as="geometry">
            <mxRectangle width="160" height="40" as="alternateBounds" />
          </mxGeometry>
        </mxCell>
        <mxCell id="qZ9QD-ZpXlhKsly8Y6b9-172" value="Write action to db&lt;div&gt;&amp;nbsp;-&amp;nbsp;&lt;/div&gt;&lt;div&gt;cooldown attempts&lt;/div&gt;" style="shape=note;whiteSpace=wrap;html=1;backgroundOutline=1;darkOpacity=0.05;" vertex="1" parent="1">
          <mxGeometry x="-615" y="-60" width="130" height="100" as="geometry" />
        </mxCell>
        <mxCell id="qZ9QD-ZpXlhKsly8Y6b9-173" style="edgeStyle=orthogonalEdgeStyle;rounded=0;orthogonalLoop=1;jettySize=auto;html=1;exitX=0.5;exitY=0;exitDx=0;exitDy=0;entryX=0.5;entryY=1;entryDx=0;entryDy=0;entryPerimeter=0;" edge="1" parent="1" source="ylh-goKrjrxt4eU4eb-0-25" target="qZ9QD-ZpXlhKsly8Y6b9-172">
          <mxGeometry relative="1" as="geometry" />
        </mxCell>
        <mxCell id="qZ9QD-ZpXlhKsly8Y6b9-182" style="edgeStyle=orthogonalEdgeStyle;rounded=0;orthogonalLoop=1;jettySize=auto;html=1;exitX=0.5;exitY=1;exitDx=0;exitDy=0;entryX=0.5;entryY=0;entryDx=0;entryDy=0;" edge="1" parent="1" source="qZ9QD-ZpXlhKsly8Y6b9-181" target="qZ9QD-ZpXlhKsly8Y6b9-186">
          <mxGeometry relative="1" as="geometry" />
        </mxCell>
        <mxCell id="qZ9QD-ZpXlhKsly8Y6b9-185" style="edgeStyle=orthogonalEdgeStyle;rounded=0;orthogonalLoop=1;jettySize=auto;html=1;exitX=1;exitY=0.5;exitDx=0;exitDy=0;entryX=0;entryY=0.5;entryDx=0;entryDy=0;" edge="1" parent="1" source="qZ9QD-ZpXlhKsly8Y6b9-181" target="ylh-goKrjrxt4eU4eb-0-3">
          <mxGeometry relative="1" as="geometry" />
        </mxCell>
        <mxCell id="qZ9QD-ZpXlhKsly8Y6b9-181" value="Check user have a Valid paid/free plan&amp;nbsp;" style="rounded=0;whiteSpace=wrap;html=1;" vertex="1" parent="1">
          <mxGeometry x="-580" y="765" width="120" height="60" as="geometry" />
        </mxCell>
        <mxCell id="qZ9QD-ZpXlhKsly8Y6b9-187" style="edgeStyle=orthogonalEdgeStyle;rounded=0;orthogonalLoop=1;jettySize=auto;html=1;exitX=0;exitY=0.5;exitDx=0;exitDy=0;entryX=1;entryY=0.5;entryDx=0;entryDy=0;" edge="1" parent="1" source="qZ9QD-ZpXlhKsly8Y6b9-186" target="qZ9QD-ZpXlhKsly8Y6b9-194">
          <mxGeometry relative="1" as="geometry" />
        </mxCell>
        <mxCell id="qZ9QD-ZpXlhKsly8Y6b9-186" value="No" style="ellipse;whiteSpace=wrap;html=1;" vertex="1" parent="1">
          <mxGeometry x="-580" y="925" width="120" height="80" as="geometry" />
        </mxCell>
        <mxCell id="qZ9QD-ZpXlhKsly8Y6b9-191" style="edgeStyle=orthogonalEdgeStyle;rounded=0;orthogonalLoop=1;jettySize=auto;html=1;exitX=1;exitY=0.5;exitDx=0;exitDy=0;entryX=0.25;entryY=1;entryDx=0;entryDy=0;" edge="1" parent="1" source="qZ9QD-ZpXlhKsly8Y6b9-188" target="ylh-goKrjrxt4eU4eb-0-14">
          <mxGeometry relative="1" as="geometry" />
        </mxCell>
        <mxCell id="qZ9QD-ZpXlhKsly8Y6b9-193" style="edgeStyle=orthogonalEdgeStyle;rounded=0;orthogonalLoop=1;jettySize=auto;html=1;exitX=0;exitY=0.5;exitDx=0;exitDy=0;entryX=1;entryY=0.5;entryDx=0;entryDy=0;" edge="1" parent="1" source="qZ9QD-ZpXlhKsly8Y6b9-188" target="ylh-goKrjrxt4eU4eb-0-19">
          <mxGeometry relative="1" as="geometry" />
        </mxCell>
        <mxCell id="qZ9QD-ZpXlhKsly8Y6b9-188" value="sign in problem" style="rounded=0;whiteSpace=wrap;html=1;" vertex="1" parent="1">
          <mxGeometry x="-660" y="550" width="120" height="60" as="geometry" />
        </mxCell>
        <mxCell id="qZ9QD-ZpXlhKsly8Y6b9-1233" style="edgeStyle=orthogonalEdgeStyle;rounded=0;orthogonalLoop=1;jettySize=auto;html=1;exitX=0;exitY=0.75;exitDx=0;exitDy=0;entryX=1;entryY=0.5;entryDx=0;entryDy=0;" edge="1" parent="1" source="qZ9QD-ZpXlhKsly8Y6b9-194" target="qZ9QD-ZpXlhKsly8Y6b9-1232">
          <mxGeometry relative="1" as="geometry" />
        </mxCell>
        <mxCell id="qZ9QD-ZpXlhKsly8Y6b9-1236" style="edgeStyle=orthogonalEdgeStyle;rounded=0;orthogonalLoop=1;jettySize=auto;html=1;exitX=0;exitY=1;exitDx=0;exitDy=0;entryX=1;entryY=0.5;entryDx=0;entryDy=0;" edge="1" parent="1" source="qZ9QD-ZpXlhKsly8Y6b9-194" target="qZ9QD-ZpXlhKsly8Y6b9-1235">
          <mxGeometry relative="1" as="geometry" />
        </mxCell>
        <mxCell id="qZ9QD-ZpXlhKsly8Y6b9-194" value="push to go to - Payments" style="rounded=0;whiteSpace=wrap;html=1;" vertex="1" parent="1">
          <mxGeometry x="-740" y="935" width="120" height="60" as="geometry" />
        </mxCell>
        <mxCell id="qZ9QD-ZpXlhKsly8Y6b9-199" style="edgeStyle=orthogonalEdgeStyle;rounded=0;orthogonalLoop=1;jettySize=auto;html=1;exitX=1;exitY=0;exitDx=0;exitDy=0;entryX=0.5;entryY=1;entryDx=0;entryDy=0;" edge="1" parent="1" source="qZ9QD-ZpXlhKsly8Y6b9-196" target="qZ9QD-ZpXlhKsly8Y6b9-198">
          <mxGeometry relative="1" as="geometry" />
        </mxCell>
        <mxCell id="qZ9QD-ZpXlhKsly8Y6b9-203" style="edgeStyle=orthogonalEdgeStyle;rounded=0;orthogonalLoop=1;jettySize=auto;html=1;exitX=0;exitY=0;exitDx=0;exitDy=0;entryX=0.5;entryY=1;entryDx=0;entryDy=0;" edge="1" parent="1" source="qZ9QD-ZpXlhKsly8Y6b9-196" target="qZ9QD-ZpXlhKsly8Y6b9-202">
          <mxGeometry relative="1" as="geometry" />
        </mxCell>
        <mxCell id="qZ9QD-ZpXlhKsly8Y6b9-196" value="Check if payment succesful" style="rounded=0;whiteSpace=wrap;html=1;" vertex="1" parent="1">
          <mxGeometry x="-900" y="755" width="120" height="60" as="geometry" />
        </mxCell>
        <mxCell id="qZ9QD-ZpXlhKsly8Y6b9-200" style="edgeStyle=orthogonalEdgeStyle;rounded=0;orthogonalLoop=1;jettySize=auto;html=1;exitX=0.5;exitY=0;exitDx=0;exitDy=0;entryX=0.5;entryY=1;entryDx=0;entryDy=0;" edge="1" parent="1" source="qZ9QD-ZpXlhKsly8Y6b9-198" target="ylh-goKrjrxt4eU4eb-0-19">
          <mxGeometry relative="1" as="geometry" />
        </mxCell>
        <mxCell id="qZ9QD-ZpXlhKsly8Y6b9-198" value="No" style="ellipse;whiteSpace=wrap;html=1;" vertex="1" parent="1">
          <mxGeometry x="-810" y="630" width="120" height="80" as="geometry" />
        </mxCell>
        <mxCell id="qZ9QD-ZpXlhKsly8Y6b9-205" style="edgeStyle=orthogonalEdgeStyle;rounded=0;orthogonalLoop=1;jettySize=auto;html=1;exitX=0;exitY=0;exitDx=0;exitDy=0;entryX=0.5;entryY=1;entryDx=0;entryDy=0;" edge="1" parent="1" source="qZ9QD-ZpXlhKsly8Y6b9-202" target="qZ9QD-ZpXlhKsly8Y6b9-204">
          <mxGeometry relative="1" as="geometry" />
        </mxCell>
        <mxCell id="qZ9QD-ZpXlhKsly8Y6b9-202" value="yes" style="ellipse;whiteSpace=wrap;html=1;" vertex="1" parent="1">
          <mxGeometry x="-980" y="630" width="120" height="80" as="geometry" />
        </mxCell>
        <mxCell id="qZ9QD-ZpXlhKsly8Y6b9-204" value="Send message - &quot;Thank you, payment complete&quot; Go to menu" style="rounded=0;whiteSpace=wrap;html=1;" vertex="1" parent="1">
          <mxGeometry x="-1030" y="530" width="120" height="60" as="geometry" />
        </mxCell>
        <mxCell id="qZ9QD-ZpXlhKsly8Y6b9-988" value="fact_telegram_bot_actions" style="shape=table;startSize=38;container=1;collapsible=0;childLayout=tableLayout;" vertex="1" parent="1">
          <mxGeometry x="-2330" y="392" width="490" height="928" as="geometry" />
        </mxCell>
        <mxCell id="qZ9QD-ZpXlhKsly8Y6b9-989" value="" style="shape=tableRow;horizontal=0;startSize=0;swimlaneHead=0;swimlaneBody=0;strokeColor=inherit;top=0;left=0;bottom=0;right=0;collapsible=0;dropTarget=0;fillColor=none;points=[[0,0.5],[1,0.5]];portConstraint=eastwest;" vertex="1" parent="qZ9QD-ZpXlhKsly8Y6b9-988">
          <mxGeometry y="38" width="490" height="65" as="geometry" />
        </mxCell>
        <mxCell id="qZ9QD-ZpXlhKsly8Y6b9-990" value="Columns" style="shape=partialRectangle;html=1;whiteSpace=wrap;connectable=0;strokeColor=inherit;overflow=hidden;fillColor=none;top=0;left=0;bottom=0;right=0;pointerEvents=1;" vertex="1" parent="qZ9QD-ZpXlhKsly8Y6b9-989">
          <mxGeometry width="163" height="65" as="geometry">
            <mxRectangle width="163" height="65" as="alternateBounds" />
          </mxGeometry>
        </mxCell>
        <mxCell id="qZ9QD-ZpXlhKsly8Y6b9-991" value="Data type" style="shape=partialRectangle;html=1;whiteSpace=wrap;connectable=0;strokeColor=inherit;overflow=hidden;fillColor=none;top=0;left=0;bottom=0;right=0;pointerEvents=1;" vertex="1" parent="qZ9QD-ZpXlhKsly8Y6b9-989">
          <mxGeometry x="163" width="164" height="65" as="geometry">
            <mxRectangle width="164" height="65" as="alternateBounds" />
          </mxGeometry>
        </mxCell>
        <mxCell id="qZ9QD-ZpXlhKsly8Y6b9-992" value="Description" style="shape=partialRectangle;html=1;whiteSpace=wrap;connectable=0;strokeColor=inherit;overflow=hidden;fillColor=none;top=0;left=0;bottom=0;right=0;pointerEvents=1;" vertex="1" parent="qZ9QD-ZpXlhKsly8Y6b9-989">
          <mxGeometry x="327" width="163" height="65" as="geometry">
            <mxRectangle width="163" height="65" as="alternateBounds" />
          </mxGeometry>
        </mxCell>
        <mxCell id="qZ9QD-ZpXlhKsly8Y6b9-996" value="" style="shape=tableRow;horizontal=0;startSize=0;swimlaneHead=0;swimlaneBody=0;strokeColor=inherit;top=0;left=0;bottom=0;right=0;collapsible=0;dropTarget=0;fillColor=none;points=[[0,0.5],[1,0.5]];portConstraint=eastwest;" vertex="1" parent="qZ9QD-ZpXlhKsly8Y6b9-988">
          <mxGeometry y="103" width="490" height="62" as="geometry" />
        </mxCell>
        <mxCell id="qZ9QD-ZpXlhKsly8Y6b9-997" value="user_id" style="shape=partialRectangle;html=1;whiteSpace=wrap;connectable=0;strokeColor=inherit;overflow=hidden;fillColor=none;top=0;left=0;bottom=0;right=0;pointerEvents=1;" vertex="1" parent="qZ9QD-ZpXlhKsly8Y6b9-996">
          <mxGeometry width="163" height="62" as="geometry">
            <mxRectangle width="163" height="62" as="alternateBounds" />
          </mxGeometry>
        </mxCell>
        <mxCell id="qZ9QD-ZpXlhKsly8Y6b9-998" value="string" style="shape=partialRectangle;html=1;whiteSpace=wrap;connectable=0;strokeColor=inherit;overflow=hidden;fillColor=none;top=0;left=0;bottom=0;right=0;pointerEvents=1;" vertex="1" parent="qZ9QD-ZpXlhKsly8Y6b9-996">
          <mxGeometry x="163" width="164" height="62" as="geometry">
            <mxRectangle width="164" height="62" as="alternateBounds" />
          </mxGeometry>
        </mxCell>
        <mxCell id="qZ9QD-ZpXlhKsly8Y6b9-999" value="if event first_connection generate new user id - user id in system" style="shape=partialRectangle;html=1;whiteSpace=wrap;connectable=0;strokeColor=inherit;overflow=hidden;fillColor=none;top=0;left=0;bottom=0;right=0;pointerEvents=1;" vertex="1" parent="qZ9QD-ZpXlhKsly8Y6b9-996">
          <mxGeometry x="327" width="163" height="62" as="geometry">
            <mxRectangle width="163" height="62" as="alternateBounds" />
          </mxGeometry>
        </mxCell>
        <mxCell id="qZ9QD-ZpXlhKsly8Y6b9-1003" value="" style="shape=tableRow;horizontal=0;startSize=0;swimlaneHead=0;swimlaneBody=0;strokeColor=inherit;top=0;left=0;bottom=0;right=0;collapsible=0;dropTarget=0;fillColor=none;points=[[0,0.5],[1,0.5]];portConstraint=eastwest;" vertex="1" parent="qZ9QD-ZpXlhKsly8Y6b9-988">
          <mxGeometry y="165" width="490" height="65" as="geometry" />
        </mxCell>
        <mxCell id="qZ9QD-ZpXlhKsly8Y6b9-1004" value="&lt;font style=&quot;font-size: 12px;&quot;&gt;telegram_id&lt;/font&gt;" style="shape=partialRectangle;html=1;whiteSpace=wrap;connectable=0;strokeColor=inherit;overflow=hidden;fillColor=none;top=0;left=0;bottom=0;right=0;pointerEvents=1;" vertex="1" parent="qZ9QD-ZpXlhKsly8Y6b9-1003">
          <mxGeometry width="163" height="65" as="geometry">
            <mxRectangle width="163" height="65" as="alternateBounds" />
          </mxGeometry>
        </mxCell>
        <mxCell id="qZ9QD-ZpXlhKsly8Y6b9-1005" value="string" style="shape=partialRectangle;html=1;whiteSpace=wrap;connectable=0;strokeColor=inherit;overflow=hidden;fillColor=none;top=0;left=0;bottom=0;right=0;pointerEvents=1;" vertex="1" parent="qZ9QD-ZpXlhKsly8Y6b9-1003">
          <mxGeometry x="163" width="164" height="65" as="geometry">
            <mxRectangle width="164" height="65" as="alternateBounds" />
          </mxGeometry>
        </mxCell>
        <mxCell id="qZ9QD-ZpXlhKsly8Y6b9-1006" value="user id in telegram" style="shape=partialRectangle;html=1;whiteSpace=wrap;connectable=0;strokeColor=inherit;overflow=hidden;fillColor=none;top=0;left=0;bottom=0;right=0;pointerEvents=1;" vertex="1" parent="qZ9QD-ZpXlhKsly8Y6b9-1003">
          <mxGeometry x="327" width="163" height="65" as="geometry">
            <mxRectangle width="163" height="65" as="alternateBounds" />
          </mxGeometry>
        </mxCell>
        <mxCell id="qZ9QD-ZpXlhKsly8Y6b9-1010" value="" style="shape=tableRow;horizontal=0;startSize=0;swimlaneHead=0;swimlaneBody=0;strokeColor=inherit;top=0;left=0;bottom=0;right=0;collapsible=0;dropTarget=0;fillColor=none;points=[[0,0.5],[1,0.5]];portConstraint=eastwest;" vertex="1" parent="qZ9QD-ZpXlhKsly8Y6b9-988">
          <mxGeometry y="230" width="490" height="62" as="geometry" />
        </mxCell>
        <mxCell id="qZ9QD-ZpXlhKsly8Y6b9-1011" value="&lt;font style=&quot;font-size: 12px;&quot;&gt;event_time&lt;/font&gt;" style="shape=partialRectangle;html=1;whiteSpace=wrap;connectable=0;strokeColor=inherit;overflow=hidden;fillColor=none;top=0;left=0;bottom=0;right=0;pointerEvents=1;" vertex="1" parent="qZ9QD-ZpXlhKsly8Y6b9-1010">
          <mxGeometry width="163" height="62" as="geometry">
            <mxRectangle width="163" height="62" as="alternateBounds" />
          </mxGeometry>
        </mxCell>
        <mxCell id="qZ9QD-ZpXlhKsly8Y6b9-1012" value="timestamp" style="shape=partialRectangle;html=1;whiteSpace=wrap;connectable=0;strokeColor=inherit;overflow=hidden;fillColor=none;top=0;left=0;bottom=0;right=0;pointerEvents=1;" vertex="1" parent="qZ9QD-ZpXlhKsly8Y6b9-1010">
          <mxGeometry x="163" width="164" height="62" as="geometry">
            <mxRectangle width="164" height="62" as="alternateBounds" />
          </mxGeometry>
        </mxCell>
        <mxCell id="qZ9QD-ZpXlhKsly8Y6b9-1013" value="when the event happen" style="shape=partialRectangle;html=1;whiteSpace=wrap;connectable=0;strokeColor=inherit;overflow=hidden;fillColor=none;top=0;left=0;bottom=0;right=0;pointerEvents=1;" vertex="1" parent="qZ9QD-ZpXlhKsly8Y6b9-1010">
          <mxGeometry x="327" width="163" height="62" as="geometry">
            <mxRectangle width="163" height="62" as="alternateBounds" />
          </mxGeometry>
        </mxCell>
        <mxCell id="qZ9QD-ZpXlhKsly8Y6b9-1218" value="" style="shape=tableRow;horizontal=0;startSize=0;swimlaneHead=0;swimlaneBody=0;strokeColor=inherit;top=0;left=0;bottom=0;right=0;collapsible=0;dropTarget=0;fillColor=none;points=[[0,0.5],[1,0.5]];portConstraint=eastwest;" vertex="1" parent="qZ9QD-ZpXlhKsly8Y6b9-988">
          <mxGeometry y="292" width="490" height="65" as="geometry" />
        </mxCell>
        <mxCell id="qZ9QD-ZpXlhKsly8Y6b9-1219" value="&lt;font style=&quot;font-size: 12px;&quot;&gt;event_type&lt;/font&gt;" style="shape=partialRectangle;html=1;whiteSpace=wrap;connectable=0;strokeColor=inherit;overflow=hidden;fillColor=none;top=0;left=0;bottom=0;right=0;pointerEvents=1;" vertex="1" parent="qZ9QD-ZpXlhKsly8Y6b9-1218">
          <mxGeometry width="163" height="65" as="geometry">
            <mxRectangle width="163" height="65" as="alternateBounds" />
          </mxGeometry>
        </mxCell>
        <mxCell id="qZ9QD-ZpXlhKsly8Y6b9-1220" value="string" style="shape=partialRectangle;html=1;whiteSpace=wrap;connectable=0;strokeColor=inherit;overflow=hidden;fillColor=none;top=0;left=0;bottom=0;right=0;pointerEvents=1;" vertex="1" parent="qZ9QD-ZpXlhKsly8Y6b9-1218">
          <mxGeometry x="163" width="164" height="65" as="geometry">
            <mxRectangle width="164" height="65" as="alternateBounds" />
          </mxGeometry>
        </mxCell>
        <mxCell id="qZ9QD-ZpXlhKsly8Y6b9-1221" value="type of action in bot" style="shape=partialRectangle;html=1;whiteSpace=wrap;connectable=0;strokeColor=inherit;overflow=hidden;fillColor=none;top=0;left=0;bottom=0;right=0;pointerEvents=1;" vertex="1" parent="qZ9QD-ZpXlhKsly8Y6b9-1218">
          <mxGeometry x="327" width="163" height="65" as="geometry">
            <mxRectangle width="163" height="65" as="alternateBounds" />
          </mxGeometry>
        </mxCell>
        <mxCell id="qZ9QD-ZpXlhKsly8Y6b9-1017" value="" style="shape=tableRow;horizontal=0;startSize=0;swimlaneHead=0;swimlaneBody=0;strokeColor=inherit;top=0;left=0;bottom=0;right=0;collapsible=0;dropTarget=0;fillColor=none;points=[[0,0.5],[1,0.5]];portConstraint=eastwest;" vertex="1" parent="qZ9QD-ZpXlhKsly8Y6b9-988">
          <mxGeometry y="357" width="490" height="62" as="geometry" />
        </mxCell>
        <mxCell id="qZ9QD-ZpXlhKsly8Y6b9-1018" value="user_email" style="shape=partialRectangle;html=1;whiteSpace=wrap;connectable=0;strokeColor=inherit;overflow=hidden;fillColor=none;top=0;left=0;bottom=0;right=0;pointerEvents=1;" vertex="1" parent="qZ9QD-ZpXlhKsly8Y6b9-1017">
          <mxGeometry width="163" height="62" as="geometry">
            <mxRectangle width="163" height="62" as="alternateBounds" />
          </mxGeometry>
        </mxCell>
        <mxCell id="qZ9QD-ZpXlhKsly8Y6b9-1019" value="string" style="shape=partialRectangle;html=1;whiteSpace=wrap;connectable=0;strokeColor=inherit;overflow=hidden;fillColor=none;top=0;left=0;bottom=0;right=0;pointerEvents=1;" vertex="1" parent="qZ9QD-ZpXlhKsly8Y6b9-1017">
          <mxGeometry x="163" width="164" height="62" as="geometry">
            <mxRectangle width="164" height="62" as="alternateBounds" />
          </mxGeometry>
        </mxCell>
        <mxCell id="qZ9QD-ZpXlhKsly8Y6b9-1020" value="user email" style="shape=partialRectangle;html=1;whiteSpace=wrap;connectable=0;strokeColor=inherit;overflow=hidden;fillColor=none;top=0;left=0;bottom=0;right=0;pointerEvents=1;" vertex="1" parent="qZ9QD-ZpXlhKsly8Y6b9-1017">
          <mxGeometry x="327" width="163" height="62" as="geometry">
            <mxRectangle width="163" height="62" as="alternateBounds" />
          </mxGeometry>
        </mxCell>
        <mxCell id="qZ9QD-ZpXlhKsly8Y6b9-1024" value="" style="shape=tableRow;horizontal=0;startSize=0;swimlaneHead=0;swimlaneBody=0;strokeColor=inherit;top=0;left=0;bottom=0;right=0;collapsible=0;dropTarget=0;fillColor=none;points=[[0,0.5],[1,0.5]];portConstraint=eastwest;" vertex="1" parent="qZ9QD-ZpXlhKsly8Y6b9-988">
          <mxGeometry y="419" width="490" height="65" as="geometry" />
        </mxCell>
        <mxCell id="qZ9QD-ZpXlhKsly8Y6b9-1025" value="&lt;font style=&quot;font-size: 12px;&quot;&gt;user_device&lt;/font&gt;" style="shape=partialRectangle;html=1;whiteSpace=wrap;connectable=0;strokeColor=inherit;overflow=hidden;fillColor=none;top=0;left=0;bottom=0;right=0;pointerEvents=1;" vertex="1" parent="qZ9QD-ZpXlhKsly8Y6b9-1024">
          <mxGeometry width="163" height="65" as="geometry">
            <mxRectangle width="163" height="65" as="alternateBounds" />
          </mxGeometry>
        </mxCell>
        <mxCell id="qZ9QD-ZpXlhKsly8Y6b9-1026" value="string" style="shape=partialRectangle;html=1;whiteSpace=wrap;connectable=0;strokeColor=inherit;overflow=hidden;fillColor=none;top=0;left=0;bottom=0;right=0;pointerEvents=1;" vertex="1" parent="qZ9QD-ZpXlhKsly8Y6b9-1024">
          <mxGeometry x="163" width="164" height="65" as="geometry">
            <mxRectangle width="164" height="65" as="alternateBounds" />
          </mxGeometry>
        </mxCell>
        <mxCell id="qZ9QD-ZpXlhKsly8Y6b9-1027" value="type of device user work with" style="shape=partialRectangle;html=1;whiteSpace=wrap;connectable=0;strokeColor=inherit;overflow=hidden;fillColor=none;top=0;left=0;bottom=0;right=0;pointerEvents=1;" vertex="1" parent="qZ9QD-ZpXlhKsly8Y6b9-1024">
          <mxGeometry x="327" width="163" height="65" as="geometry">
            <mxRectangle width="163" height="65" as="alternateBounds" />
          </mxGeometry>
        </mxCell>
        <mxCell id="qZ9QD-ZpXlhKsly8Y6b9-1031" value="" style="shape=tableRow;horizontal=0;startSize=0;swimlaneHead=0;swimlaneBody=0;strokeColor=inherit;top=0;left=0;bottom=0;right=0;collapsible=0;dropTarget=0;fillColor=none;points=[[0,0.5],[1,0.5]];portConstraint=eastwest;" vertex="1" parent="qZ9QD-ZpXlhKsly8Y6b9-988">
          <mxGeometry y="484" width="490" height="64" as="geometry" />
        </mxCell>
        <mxCell id="qZ9QD-ZpXlhKsly8Y6b9-1032" value="user_plan" style="shape=partialRectangle;html=1;whiteSpace=wrap;connectable=0;strokeColor=inherit;overflow=hidden;fillColor=none;top=0;left=0;bottom=0;right=0;pointerEvents=1;" vertex="1" parent="qZ9QD-ZpXlhKsly8Y6b9-1031">
          <mxGeometry width="163" height="64" as="geometry">
            <mxRectangle width="163" height="64" as="alternateBounds" />
          </mxGeometry>
        </mxCell>
        <mxCell id="qZ9QD-ZpXlhKsly8Y6b9-1033" value="string" style="shape=partialRectangle;html=1;whiteSpace=wrap;connectable=0;strokeColor=inherit;overflow=hidden;fillColor=none;top=0;left=0;bottom=0;right=0;pointerEvents=1;" vertex="1" parent="qZ9QD-ZpXlhKsly8Y6b9-1031">
          <mxGeometry x="163" width="164" height="64" as="geometry">
            <mxRectangle width="164" height="64" as="alternateBounds" />
          </mxGeometry>
        </mxCell>
        <mxCell id="qZ9QD-ZpXlhKsly8Y6b9-1034" value="which plan the user on" style="shape=partialRectangle;html=1;whiteSpace=wrap;connectable=0;strokeColor=inherit;overflow=hidden;fillColor=none;top=0;left=0;bottom=0;right=0;pointerEvents=1;" vertex="1" parent="qZ9QD-ZpXlhKsly8Y6b9-1031">
          <mxGeometry x="327" width="163" height="64" as="geometry">
            <mxRectangle width="163" height="64" as="alternateBounds" />
          </mxGeometry>
        </mxCell>
        <mxCell id="qZ9QD-ZpXlhKsly8Y6b9-1038" value="" style="shape=tableRow;horizontal=0;startSize=0;swimlaneHead=0;swimlaneBody=0;strokeColor=inherit;top=0;left=0;bottom=0;right=0;collapsible=0;dropTarget=0;fillColor=none;points=[[0,0.5],[1,0.5]];portConstraint=eastwest;" vertex="1" parent="qZ9QD-ZpXlhKsly8Y6b9-988">
          <mxGeometry y="548" width="490" height="62" as="geometry" />
        </mxCell>
        <mxCell id="qZ9QD-ZpXlhKsly8Y6b9-1039" value="kpi" style="shape=partialRectangle;html=1;whiteSpace=wrap;connectable=0;strokeColor=inherit;overflow=hidden;fillColor=none;top=0;left=0;bottom=0;right=0;pointerEvents=1;" vertex="1" parent="qZ9QD-ZpXlhKsly8Y6b9-1038">
          <mxGeometry width="163" height="62" as="geometry">
            <mxRectangle width="163" height="62" as="alternateBounds" />
          </mxGeometry>
        </mxCell>
        <mxCell id="qZ9QD-ZpXlhKsly8Y6b9-1040" value="string" style="shape=partialRectangle;html=1;whiteSpace=wrap;connectable=0;strokeColor=inherit;overflow=hidden;fillColor=none;top=0;left=0;bottom=0;right=0;pointerEvents=1;" vertex="1" parent="qZ9QD-ZpXlhKsly8Y6b9-1038">
          <mxGeometry x="163" width="164" height="62" as="geometry">
            <mxRectangle width="164" height="62" as="alternateBounds" />
          </mxGeometry>
        </mxCell>
        <mxCell id="qZ9QD-ZpXlhKsly8Y6b9-1041" value="if as for kpi&lt;div&gt;-&lt;/div&gt;&lt;div&gt;write the function called&lt;/div&gt;" style="shape=partialRectangle;html=1;whiteSpace=wrap;connectable=0;strokeColor=inherit;overflow=hidden;fillColor=none;top=0;left=0;bottom=0;right=0;pointerEvents=1;" vertex="1" parent="qZ9QD-ZpXlhKsly8Y6b9-1038">
          <mxGeometry x="327" width="163" height="62" as="geometry">
            <mxRectangle width="163" height="62" as="alternateBounds" />
          </mxGeometry>
        </mxCell>
        <mxCell id="qZ9QD-ZpXlhKsly8Y6b9-1045" value="" style="shape=tableRow;horizontal=0;startSize=0;swimlaneHead=0;swimlaneBody=0;strokeColor=inherit;top=0;left=0;bottom=0;right=0;collapsible=0;dropTarget=0;fillColor=none;points=[[0,0.5],[1,0.5]];portConstraint=eastwest;" vertex="1" parent="qZ9QD-ZpXlhKsly8Y6b9-988">
          <mxGeometry y="610" width="490" height="64" as="geometry" />
        </mxCell>
        <mxCell id="qZ9QD-ZpXlhKsly8Y6b9-1046" value="settings_action_trigger" style="shape=partialRectangle;html=1;whiteSpace=wrap;connectable=0;strokeColor=inherit;overflow=hidden;fillColor=none;top=0;left=0;bottom=0;right=0;pointerEvents=1;" vertex="1" parent="qZ9QD-ZpXlhKsly8Y6b9-1045">
          <mxGeometry width="163" height="64" as="geometry">
            <mxRectangle width="163" height="64" as="alternateBounds" />
          </mxGeometry>
        </mxCell>
        <mxCell id="qZ9QD-ZpXlhKsly8Y6b9-1047" value="string" style="shape=partialRectangle;html=1;whiteSpace=wrap;connectable=0;strokeColor=inherit;overflow=hidden;fillColor=none;top=0;left=0;bottom=0;right=0;pointerEvents=1;" vertex="1" parent="qZ9QD-ZpXlhKsly8Y6b9-1045">
          <mxGeometry x="163" width="164" height="64" as="geometry">
            <mxRectangle width="164" height="64" as="alternateBounds" />
          </mxGeometry>
        </mxCell>
        <mxCell id="qZ9QD-ZpXlhKsly8Y6b9-1048" value="if changed_details&amp;nbsp;&lt;div&gt;-&lt;/div&gt;&lt;div&gt;which type of details (stocks, email,phone number,weights, etc...)&lt;/div&gt;" style="shape=partialRectangle;html=1;whiteSpace=wrap;connectable=0;strokeColor=inherit;overflow=hidden;fillColor=none;top=0;left=0;bottom=0;right=0;pointerEvents=1;" vertex="1" parent="qZ9QD-ZpXlhKsly8Y6b9-1045">
          <mxGeometry x="327" width="163" height="64" as="geometry">
            <mxRectangle width="163" height="64" as="alternateBounds" />
          </mxGeometry>
        </mxCell>
        <mxCell id="qZ9QD-ZpXlhKsly8Y6b9-1052" value="" style="shape=tableRow;horizontal=0;startSize=0;swimlaneHead=0;swimlaneBody=0;strokeColor=inherit;top=0;left=0;bottom=0;right=0;collapsible=0;dropTarget=0;fillColor=none;points=[[0,0.5],[1,0.5]];portConstraint=eastwest;" vertex="1" parent="qZ9QD-ZpXlhKsly8Y6b9-988">
          <mxGeometry y="674" width="490" height="64" as="geometry" />
        </mxCell>
        <mxCell id="qZ9QD-ZpXlhKsly8Y6b9-1053" value="function_call_type" style="shape=partialRectangle;html=1;whiteSpace=wrap;connectable=0;strokeColor=inherit;overflow=hidden;fillColor=none;top=0;left=0;bottom=0;right=0;pointerEvents=1;" vertex="1" parent="qZ9QD-ZpXlhKsly8Y6b9-1052">
          <mxGeometry width="163" height="64" as="geometry">
            <mxRectangle width="163" height="64" as="alternateBounds" />
          </mxGeometry>
        </mxCell>
        <mxCell id="qZ9QD-ZpXlhKsly8Y6b9-1054" value="string" style="shape=partialRectangle;html=1;whiteSpace=wrap;connectable=0;strokeColor=inherit;overflow=hidden;fillColor=none;top=0;left=0;bottom=0;right=0;pointerEvents=1;" vertex="1" parent="qZ9QD-ZpXlhKsly8Y6b9-1052">
          <mxGeometry x="163" width="164" height="64" as="geometry">
            <mxRectangle width="164" height="64" as="alternateBounds" />
          </mxGeometry>
        </mxCell>
        <mxCell id="qZ9QD-ZpXlhKsly8Y6b9-1055" value="which kpi only (RSI,MA,etc...)" style="shape=partialRectangle;html=1;whiteSpace=wrap;connectable=0;strokeColor=inherit;overflow=hidden;fillColor=none;top=0;left=0;bottom=0;right=0;pointerEvents=1;" vertex="1" parent="qZ9QD-ZpXlhKsly8Y6b9-1052">
          <mxGeometry x="327" width="163" height="64" as="geometry">
            <mxRectangle width="163" height="64" as="alternateBounds" />
          </mxGeometry>
        </mxCell>
        <mxCell id="qZ9QD-ZpXlhKsly8Y6b9-1059" value="" style="shape=tableRow;horizontal=0;startSize=0;swimlaneHead=0;swimlaneBody=0;strokeColor=inherit;top=0;left=0;bottom=0;right=0;collapsible=0;dropTarget=0;fillColor=none;points=[[0,0.5],[1,0.5]];portConstraint=eastwest;" vertex="1" parent="qZ9QD-ZpXlhKsly8Y6b9-988">
          <mxGeometry y="738" width="490" height="64" as="geometry" />
        </mxCell>
        <mxCell id="qZ9QD-ZpXlhKsly8Y6b9-1060" value="before_change" style="shape=partialRectangle;html=1;whiteSpace=wrap;connectable=0;strokeColor=inherit;overflow=hidden;fillColor=none;top=0;left=0;bottom=0;right=0;pointerEvents=1;" vertex="1" parent="qZ9QD-ZpXlhKsly8Y6b9-1059">
          <mxGeometry width="163" height="64" as="geometry">
            <mxRectangle width="163" height="64" as="alternateBounds" />
          </mxGeometry>
        </mxCell>
        <mxCell id="qZ9QD-ZpXlhKsly8Y6b9-1061" value="string" style="shape=partialRectangle;html=1;whiteSpace=wrap;connectable=0;strokeColor=inherit;overflow=hidden;fillColor=none;top=0;left=0;bottom=0;right=0;pointerEvents=1;" vertex="1" parent="qZ9QD-ZpXlhKsly8Y6b9-1059">
          <mxGeometry x="163" width="164" height="64" as="geometry">
            <mxRectangle width="164" height="64" as="alternateBounds" />
          </mxGeometry>
        </mxCell>
        <mxCell id="qZ9QD-ZpXlhKsly8Y6b9-1062" value="value before change" style="shape=partialRectangle;html=1;whiteSpace=wrap;connectable=0;strokeColor=inherit;overflow=hidden;fillColor=none;top=0;left=0;bottom=0;right=0;pointerEvents=1;" vertex="1" parent="qZ9QD-ZpXlhKsly8Y6b9-1059">
          <mxGeometry x="327" width="163" height="64" as="geometry">
            <mxRectangle width="163" height="64" as="alternateBounds" />
          </mxGeometry>
        </mxCell>
        <mxCell id="qZ9QD-ZpXlhKsly8Y6b9-1066" value="" style="shape=tableRow;horizontal=0;startSize=0;swimlaneHead=0;swimlaneBody=0;strokeColor=inherit;top=0;left=0;bottom=0;right=0;collapsible=0;dropTarget=0;fillColor=none;points=[[0,0.5],[1,0.5]];portConstraint=eastwest;" vertex="1" parent="qZ9QD-ZpXlhKsly8Y6b9-988">
          <mxGeometry y="802" width="490" height="62" as="geometry" />
        </mxCell>
        <mxCell id="qZ9QD-ZpXlhKsly8Y6b9-1067" value="after_change" style="shape=partialRectangle;html=1;whiteSpace=wrap;connectable=0;strokeColor=inherit;overflow=hidden;fillColor=none;top=0;left=0;bottom=0;right=0;pointerEvents=1;" vertex="1" parent="qZ9QD-ZpXlhKsly8Y6b9-1066">
          <mxGeometry width="163" height="62" as="geometry">
            <mxRectangle width="163" height="62" as="alternateBounds" />
          </mxGeometry>
        </mxCell>
        <mxCell id="qZ9QD-ZpXlhKsly8Y6b9-1068" value="string" style="shape=partialRectangle;html=1;whiteSpace=wrap;connectable=0;strokeColor=inherit;overflow=hidden;fillColor=none;top=0;left=0;bottom=0;right=0;pointerEvents=1;" vertex="1" parent="qZ9QD-ZpXlhKsly8Y6b9-1066">
          <mxGeometry x="163" width="164" height="62" as="geometry">
            <mxRectangle width="164" height="62" as="alternateBounds" />
          </mxGeometry>
        </mxCell>
        <mxCell id="qZ9QD-ZpXlhKsly8Y6b9-1069" value="value after change" style="shape=partialRectangle;html=1;whiteSpace=wrap;connectable=0;strokeColor=inherit;overflow=hidden;fillColor=none;top=0;left=0;bottom=0;right=0;pointerEvents=1;" vertex="1" parent="qZ9QD-ZpXlhKsly8Y6b9-1066">
          <mxGeometry x="327" width="163" height="62" as="geometry">
            <mxRectangle width="163" height="62" as="alternateBounds" />
          </mxGeometry>
        </mxCell>
        <mxCell id="qZ9QD-ZpXlhKsly8Y6b9-1073" value="" style="shape=tableRow;horizontal=0;startSize=0;swimlaneHead=0;swimlaneBody=0;strokeColor=inherit;top=0;left=0;bottom=0;right=0;collapsible=0;dropTarget=0;fillColor=none;points=[[0,0.5],[1,0.5]];portConstraint=eastwest;" vertex="1" parent="qZ9QD-ZpXlhKsly8Y6b9-988">
          <mxGeometry y="864" width="490" height="64" as="geometry" />
        </mxCell>
        <mxCell id="qZ9QD-ZpXlhKsly8Y6b9-1074" value="product_purchase" style="shape=partialRectangle;html=1;whiteSpace=wrap;connectable=0;strokeColor=inherit;overflow=hidden;fillColor=none;top=0;left=0;bottom=0;right=0;pointerEvents=1;" vertex="1" parent="qZ9QD-ZpXlhKsly8Y6b9-1073">
          <mxGeometry width="163" height="64" as="geometry">
            <mxRectangle width="163" height="64" as="alternateBounds" />
          </mxGeometry>
        </mxCell>
        <mxCell id="qZ9QD-ZpXlhKsly8Y6b9-1075" value="string" style="shape=partialRectangle;html=1;whiteSpace=wrap;connectable=0;strokeColor=inherit;overflow=hidden;fillColor=none;top=0;left=0;bottom=0;right=0;pointerEvents=1;" vertex="1" parent="qZ9QD-ZpXlhKsly8Y6b9-1073">
          <mxGeometry x="163" width="164" height="64" as="geometry">
            <mxRectangle width="164" height="64" as="alternateBounds" />
          </mxGeometry>
        </mxCell>
        <mxCell id="qZ9QD-ZpXlhKsly8Y6b9-1076" value="If product choose event, which product the user pushed" style="shape=partialRectangle;html=1;whiteSpace=wrap;connectable=0;strokeColor=inherit;overflow=hidden;fillColor=none;top=0;left=0;bottom=0;right=0;pointerEvents=1;" vertex="1" parent="qZ9QD-ZpXlhKsly8Y6b9-1073">
          <mxGeometry x="327" width="163" height="64" as="geometry">
            <mxRectangle width="163" height="64" as="alternateBounds" />
          </mxGeometry>
        </mxCell>
        <mxCell id="qZ9QD-ZpXlhKsly8Y6b9-1225" style="edgeStyle=orthogonalEdgeStyle;rounded=0;orthogonalLoop=1;jettySize=auto;html=1;exitX=0;exitY=0.5;exitDx=0;exitDy=0;entryX=1.013;entryY=0.04;entryDx=0;entryDy=0;entryPerimeter=0;" edge="1" parent="1" source="qZ9QD-ZpXlhKsly8Y6b9-1218" target="qZ9QD-ZpXlhKsly8Y6b9-131">
          <mxGeometry relative="1" as="geometry" />
        </mxCell>
        <mxCell id="qZ9QD-ZpXlhKsly8Y6b9-1230" value="Write action to db&lt;div&gt;&amp;nbsp;-&amp;nbsp;&lt;/div&gt;&lt;div&gt;purchase_shown&lt;/div&gt;" style="shape=note;whiteSpace=wrap;html=1;backgroundOutline=1;darkOpacity=0.05;" vertex="1" parent="1">
          <mxGeometry x="-690" y="1070" width="130" height="100" as="geometry" />
        </mxCell>
        <mxCell id="qZ9QD-ZpXlhKsly8Y6b9-1231" style="edgeStyle=orthogonalEdgeStyle;rounded=0;orthogonalLoop=1;jettySize=auto;html=1;exitX=0.5;exitY=1;exitDx=0;exitDy=0;entryX=0.5;entryY=0;entryDx=0;entryDy=0;entryPerimeter=0;" edge="1" parent="1" source="qZ9QD-ZpXlhKsly8Y6b9-194" target="qZ9QD-ZpXlhKsly8Y6b9-1230">
          <mxGeometry relative="1" as="geometry" />
        </mxCell>
        <mxCell id="qZ9QD-ZpXlhKsly8Y6b9-1234" style="edgeStyle=orthogonalEdgeStyle;rounded=0;orthogonalLoop=1;jettySize=auto;html=1;exitX=0.5;exitY=0;exitDx=0;exitDy=0;entryX=0.5;entryY=1;entryDx=0;entryDy=0;" edge="1" parent="1" source="qZ9QD-ZpXlhKsly8Y6b9-1232" target="qZ9QD-ZpXlhKsly8Y6b9-196">
          <mxGeometry relative="1" as="geometry" />
        </mxCell>
        <mxCell id="qZ9QD-ZpXlhKsly8Y6b9-1232" value="No" style="ellipse;whiteSpace=wrap;html=1;" vertex="1" parent="1">
          <mxGeometry x="-900" y="890" width="120" height="80" as="geometry" />
        </mxCell>
        <mxCell id="OITSv9a3_Jy2k-vIYUEM-24" style="edgeStyle=orthogonalEdgeStyle;rounded=0;orthogonalLoop=1;jettySize=auto;html=1;exitX=0;exitY=0.5;exitDx=0;exitDy=0;entryX=1;entryY=0.5;entryDx=0;entryDy=0;" edge="1" parent="1" source="qZ9QD-ZpXlhKsly8Y6b9-1235" target="OITSv9a3_Jy2k-vIYUEM-23">
          <mxGeometry relative="1" as="geometry" />
        </mxCell>
        <mxCell id="qZ9QD-ZpXlhKsly8Y6b9-1235" value="Yes" style="ellipse;whiteSpace=wrap;html=1;" vertex="1" parent="1">
          <mxGeometry x="-900" y="1000" width="120" height="80" as="geometry" />
        </mxCell>
        <mxCell id="OITSv9a3_Jy2k-vIYUEM-36" style="edgeStyle=orthogonalEdgeStyle;rounded=0;orthogonalLoop=1;jettySize=auto;html=1;exitX=1;exitY=0.5;exitDx=0;exitDy=0;entryX=0;entryY=0.5;entryDx=0;entryDy=0;" edge="1" parent="1" source="qZ9QD-ZpXlhKsly8Y6b9-1237" target="OITSv9a3_Jy2k-vIYUEM-16">
          <mxGeometry relative="1" as="geometry" />
        </mxCell>
        <mxCell id="qZ9QD-ZpXlhKsly8Y6b9-1237" value="Payments process menu_sent&amp;nbsp;&lt;div&gt;(&lt;span style=&quot;background-color: transparent; color: light-dark(rgb(0, 0, 0), rgb(255, 255, 255));&quot;&gt;in development)&lt;/span&gt;&lt;/div&gt;" style="rounded=0;whiteSpace=wrap;html=1;" vertex="1" parent="1">
          <mxGeometry x="-1360" y="695" width="120" height="60" as="geometry" />
        </mxCell>
        <mxCell id="OITSv9a3_Jy2k-vIYUEM-2" style="edgeStyle=orthogonalEdgeStyle;rounded=0;orthogonalLoop=1;jettySize=auto;html=1;exitX=0.5;exitY=1;exitDx=0;exitDy=0;entryX=0.5;entryY=0;entryDx=0;entryDy=0;" edge="1" parent="1" source="OITSv9a3_Jy2k-vIYUEM-1" target="pGtjoR-2ih055X52a59Z-22">
          <mxGeometry relative="1" as="geometry">
            <mxPoint x="265" y="600" as="targetPoint" />
          </mxGeometry>
        </mxCell>
        <mxCell id="OITSv9a3_Jy2k-vIYUEM-1" value="For all users with active plan in system - check in&amp;nbsp;fact_users_data_table&lt;br&gt;(column plan_end_time is higher than current time)" style="rounded=0;whiteSpace=wrap;html=1;" vertex="1" parent="1">
          <mxGeometry x="180" y="600" width="170" height="100" as="geometry" />
        </mxCell>
        <mxCell id="OITSv9a3_Jy2k-vIYUEM-4" style="edgeStyle=orthogonalEdgeStyle;rounded=0;orthogonalLoop=1;jettySize=auto;html=1;exitX=0;exitY=0.5;exitDx=0;exitDy=0;entryX=0.5;entryY=0;entryDx=0;entryDy=0;" edge="1" parent="1" source="OITSv9a3_Jy2k-vIYUEM-3" target="OITSv9a3_Jy2k-vIYUEM-1">
          <mxGeometry relative="1" as="geometry" />
        </mxCell>
        <mxCell id="OITSv9a3_Jy2k-vIYUEM-3" value="If new analysis ready, send a new message - daily/weekly analysis is ready" style="rounded=0;whiteSpace=wrap;html=1;" vertex="1" parent="1">
          <mxGeometry x="320" y="450" width="170" height="100" as="geometry" />
        </mxCell>
        <mxCell id="OITSv9a3_Jy2k-vIYUEM-8" value="Write action to db&lt;div&gt;&amp;nbsp;-&amp;nbsp;&lt;/div&gt;&lt;div&gt;menu_sent&lt;/div&gt;" style="shape=note;whiteSpace=wrap;html=1;backgroundOutline=1;darkOpacity=0.05;" vertex="1" parent="1">
          <mxGeometry x="-145" y="980" width="130" height="100" as="geometry" />
        </mxCell>
        <mxCell id="OITSv9a3_Jy2k-vIYUEM-9" style="edgeStyle=orthogonalEdgeStyle;rounded=0;orthogonalLoop=1;jettySize=auto;html=1;exitX=0.5;exitY=1;exitDx=0;exitDy=0;entryX=0.5;entryY=0;entryDx=0;entryDy=0;entryPerimeter=0;" edge="1" parent="1" source="pGtjoR-2ih055X52a59Z-21" target="OITSv9a3_Jy2k-vIYUEM-8">
          <mxGeometry relative="1" as="geometry" />
        </mxCell>
        <mxCell id="OITSv9a3_Jy2k-vIYUEM-10" value="Write action to db&lt;div&gt;&amp;nbsp;-&amp;nbsp;&lt;/div&gt;&lt;div&gt;sign_in_granted /&amp;nbsp;&lt;span style=&quot;background-color: transparent; color: light-dark(rgb(0, 0, 0), rgb(255, 255, 255));&quot;&gt;sign_up_granted&lt;/span&gt;&lt;/div&gt;" style="shape=note;whiteSpace=wrap;html=1;backgroundOutline=1;darkOpacity=0.05;" vertex="1" parent="1">
          <mxGeometry x="-330" y="620" width="130" height="100" as="geometry" />
        </mxCell>
        <mxCell id="OITSv9a3_Jy2k-vIYUEM-11" style="edgeStyle=orthogonalEdgeStyle;rounded=0;orthogonalLoop=1;jettySize=auto;html=1;exitX=1;exitY=0.5;exitDx=0;exitDy=0;entryX=0;entryY=0.5;entryDx=0;entryDy=0;entryPerimeter=0;" edge="1" parent="1" source="ylh-goKrjrxt4eU4eb-0-16" target="OITSv9a3_Jy2k-vIYUEM-10">
          <mxGeometry relative="1" as="geometry" />
        </mxCell>
        <mxCell id="OITSv9a3_Jy2k-vIYUEM-12" value="Write action to db&lt;div&gt;&amp;nbsp;-&amp;nbsp;&lt;/div&gt;&lt;div&gt;daily_message_sent&lt;/div&gt;" style="shape=note;whiteSpace=wrap;html=1;backgroundOutline=1;darkOpacity=0.05;" vertex="1" parent="1">
          <mxGeometry x="390" y="600" width="130" height="100" as="geometry" />
        </mxCell>
        <mxCell id="OITSv9a3_Jy2k-vIYUEM-13" style="edgeStyle=orthogonalEdgeStyle;rounded=0;orthogonalLoop=1;jettySize=auto;html=1;exitX=1;exitY=0.5;exitDx=0;exitDy=0;entryX=0;entryY=0.5;entryDx=0;entryDy=0;entryPerimeter=0;" edge="1" parent="1" source="OITSv9a3_Jy2k-vIYUEM-1" target="OITSv9a3_Jy2k-vIYUEM-12">
          <mxGeometry relative="1" as="geometry" />
        </mxCell>
        <mxCell id="OITSv9a3_Jy2k-vIYUEM-14" value="Write action to db&lt;div&gt;&amp;nbsp;-&amp;nbsp;&lt;/div&gt;&lt;div&gt;purchase_start&lt;/div&gt;" style="shape=note;whiteSpace=wrap;html=1;backgroundOutline=1;darkOpacity=0.05;" vertex="1" parent="1">
          <mxGeometry x="-900" y="1110" width="130" height="100" as="geometry" />
        </mxCell>
        <mxCell id="OITSv9a3_Jy2k-vIYUEM-15" style="edgeStyle=orthogonalEdgeStyle;rounded=0;orthogonalLoop=1;jettySize=auto;html=1;exitX=0.5;exitY=1;exitDx=0;exitDy=0;entryX=0.5;entryY=0;entryDx=0;entryDy=0;entryPerimeter=0;" edge="1" parent="1" source="qZ9QD-ZpXlhKsly8Y6b9-1235" target="OITSv9a3_Jy2k-vIYUEM-14">
          <mxGeometry relative="1" as="geometry" />
        </mxCell>
        <mxCell id="OITSv9a3_Jy2k-vIYUEM-18" style="edgeStyle=orthogonalEdgeStyle;rounded=0;orthogonalLoop=1;jettySize=auto;html=1;exitX=0.75;exitY=1;exitDx=0;exitDy=0;entryX=0;entryY=0.5;entryDx=0;entryDy=0;" edge="1" parent="1" source="OITSv9a3_Jy2k-vIYUEM-16" target="qZ9QD-ZpXlhKsly8Y6b9-196">
          <mxGeometry relative="1" as="geometry" />
        </mxCell>
        <mxCell id="OITSv9a3_Jy2k-vIYUEM-16" value="Finish Payments process&amp;nbsp;" style="rounded=0;whiteSpace=wrap;html=1;" vertex="1" parent="1">
          <mxGeometry x="-1190" y="695" width="120" height="60" as="geometry" />
        </mxCell>
        <mxCell id="OITSv9a3_Jy2k-vIYUEM-44" style="edgeStyle=orthogonalEdgeStyle;rounded=0;orthogonalLoop=1;jettySize=auto;html=1;exitX=0;exitY=0.5;exitDx=0;exitDy=0;entryX=1;entryY=0.5;entryDx=0;entryDy=0;" edge="1" parent="1" source="OITSv9a3_Jy2k-vIYUEM-23" target="OITSv9a3_Jy2k-vIYUEM-37">
          <mxGeometry relative="1" as="geometry">
            <mxPoint x="-1240" y="1050" as="targetPoint" />
          </mxGeometry>
        </mxCell>
        <mxCell id="OITSv9a3_Jy2k-vIYUEM-23" value="Choose your plan/product &amp;amp; enter coupon name if you have one and send him in chat and push to get a plan" style="rounded=0;whiteSpace=wrap;html=1;" vertex="1" parent="1">
          <mxGeometry x="-1110" y="1000" width="140" height="80" as="geometry" />
        </mxCell>
        <mxCell id="OITSv9a3_Jy2k-vIYUEM-25" style="edgeStyle=orthogonalEdgeStyle;rounded=0;orthogonalLoop=1;jettySize=auto;html=1;exitX=0;exitY=0.5;exitDx=0;exitDy=0;entryX=0.5;entryY=1;entryDx=0;entryDy=0;" edge="1" parent="1" source="OITSv9a3_Jy2k-vIYUEM-27" target="OITSv9a3_Jy2k-vIYUEM-29">
          <mxGeometry relative="1" as="geometry" />
        </mxCell>
        <mxCell id="OITSv9a3_Jy2k-vIYUEM-26" style="edgeStyle=orthogonalEdgeStyle;rounded=0;orthogonalLoop=1;jettySize=auto;html=1;exitX=1;exitY=0.5;exitDx=0;exitDy=0;entryX=0.5;entryY=1;entryDx=0;entryDy=0;" edge="1" parent="1" source="OITSv9a3_Jy2k-vIYUEM-27" target="OITSv9a3_Jy2k-vIYUEM-30">
          <mxGeometry relative="1" as="geometry" />
        </mxCell>
        <mxCell id="OITSv9a3_Jy2k-vIYUEM-27" value="show - Invoice for plan/product&amp;nbsp;&lt;div&gt;-&lt;/div&gt;&lt;div&gt;ask for aproval&lt;/div&gt;" style="rounded=0;whiteSpace=wrap;html=1;" vertex="1" parent="1">
          <mxGeometry x="-1400" y="915" width="120" height="60" as="geometry" />
        </mxCell>
        <mxCell id="OITSv9a3_Jy2k-vIYUEM-50" style="edgeStyle=orthogonalEdgeStyle;rounded=0;orthogonalLoop=1;jettySize=auto;html=1;exitX=0;exitY=0;exitDx=0;exitDy=0;entryX=0.5;entryY=1;entryDx=0;entryDy=0;" edge="1" parent="1" source="OITSv9a3_Jy2k-vIYUEM-29" target="OITSv9a3_Jy2k-vIYUEM-49">
          <mxGeometry relative="1" as="geometry" />
        </mxCell>
        <mxCell id="OITSv9a3_Jy2k-vIYUEM-51" style="edgeStyle=orthogonalEdgeStyle;rounded=0;orthogonalLoop=1;jettySize=auto;html=1;exitX=0.5;exitY=0;exitDx=0;exitDy=0;entryX=0.5;entryY=1;entryDx=0;entryDy=0;" edge="1" parent="1" source="OITSv9a3_Jy2k-vIYUEM-29" target="OITSv9a3_Jy2k-vIYUEM-48">
          <mxGeometry relative="1" as="geometry" />
        </mxCell>
        <mxCell id="OITSv9a3_Jy2k-vIYUEM-29" value="User Approved" style="ellipse;whiteSpace=wrap;html=1;" vertex="1" parent="1">
          <mxGeometry x="-1540" y="805" width="120" height="80" as="geometry" />
        </mxCell>
        <mxCell id="OITSv9a3_Jy2k-vIYUEM-34" style="edgeStyle=orthogonalEdgeStyle;rounded=0;orthogonalLoop=1;jettySize=auto;html=1;exitX=1;exitY=0.5;exitDx=0;exitDy=0;entryX=0.5;entryY=0;entryDx=0;entryDy=0;" edge="1" parent="1" source="OITSv9a3_Jy2k-vIYUEM-30" target="OITSv9a3_Jy2k-vIYUEM-23">
          <mxGeometry relative="1" as="geometry" />
        </mxCell>
        <mxCell id="OITSv9a3_Jy2k-vIYUEM-30" value="Not approved" style="ellipse;whiteSpace=wrap;html=1;" vertex="1" parent="1">
          <mxGeometry x="-1260" y="805" width="120" height="80" as="geometry" />
        </mxCell>
        <mxCell id="OITSv9a3_Jy2k-vIYUEM-31" value="Write action to db&lt;div&gt;&amp;nbsp;-&amp;nbsp;&lt;/div&gt;&lt;div&gt;Plan choose&lt;/div&gt;" style="shape=note;whiteSpace=wrap;html=1;backgroundOutline=1;darkOpacity=0.05;" vertex="1" parent="1">
          <mxGeometry x="-1750" y="780" width="130" height="100" as="geometry" />
        </mxCell>
        <mxCell id="OITSv9a3_Jy2k-vIYUEM-43" style="edgeStyle=orthogonalEdgeStyle;rounded=0;orthogonalLoop=1;jettySize=auto;html=1;exitX=0.5;exitY=0;exitDx=0;exitDy=0;entryX=0.5;entryY=1;entryDx=0;entryDy=0;" edge="1" parent="1" source="OITSv9a3_Jy2k-vIYUEM-37" target="OITSv9a3_Jy2k-vIYUEM-27">
          <mxGeometry relative="1" as="geometry" />
        </mxCell>
        <mxCell id="OITSv9a3_Jy2k-vIYUEM-37" value="Take the final coupon if the user sent. Calculate the final cost for the user include coupon if needed" style="rounded=0;whiteSpace=wrap;html=1;" vertex="1" parent="1">
          <mxGeometry x="-1410" y="1020" width="140" height="80" as="geometry" />
        </mxCell>
        <mxCell id="OITSv9a3_Jy2k-vIYUEM-46" style="edgeStyle=orthogonalEdgeStyle;rounded=0;orthogonalLoop=1;jettySize=auto;html=1;exitX=0;exitY=0.5;exitDx=0;exitDy=0;entryX=0;entryY=0;entryDx=130;entryDy=65;entryPerimeter=0;" edge="1" parent="1" source="OITSv9a3_Jy2k-vIYUEM-29" target="OITSv9a3_Jy2k-vIYUEM-31">
          <mxGeometry relative="1" as="geometry" />
        </mxCell>
        <mxCell id="OITSv9a3_Jy2k-vIYUEM-52" style="edgeStyle=orthogonalEdgeStyle;rounded=0;orthogonalLoop=1;jettySize=auto;html=1;exitX=1;exitY=0.5;exitDx=0;exitDy=0;entryX=0;entryY=0.5;entryDx=0;entryDy=0;" edge="1" parent="1" source="OITSv9a3_Jy2k-vIYUEM-48" target="qZ9QD-ZpXlhKsly8Y6b9-1237">
          <mxGeometry relative="1" as="geometry" />
        </mxCell>
        <mxCell id="OITSv9a3_Jy2k-vIYUEM-48" value="not free" style="ellipse;whiteSpace=wrap;html=1;" vertex="1" parent="1">
          <mxGeometry x="-1510" y="685" width="120" height="80" as="geometry" />
        </mxCell>
        <mxCell id="OITSv9a3_Jy2k-vIYUEM-54" style="edgeStyle=orthogonalEdgeStyle;rounded=0;orthogonalLoop=1;jettySize=auto;html=1;exitX=0.5;exitY=0;exitDx=0;exitDy=0;entryX=0.5;entryY=1;entryDx=0;entryDy=0;" edge="1" parent="1" source="OITSv9a3_Jy2k-vIYUEM-49" target="OITSv9a3_Jy2k-vIYUEM-53">
          <mxGeometry relative="1" as="geometry" />
        </mxCell>
        <mxCell id="OITSv9a3_Jy2k-vIYUEM-49" value="if price is free" style="ellipse;whiteSpace=wrap;html=1;" vertex="1" parent="1">
          <mxGeometry x="-1660" y="650" width="120" height="80" as="geometry" />
        </mxCell>
        <mxCell id="OITSv9a3_Jy2k-vIYUEM-56" style="edgeStyle=orthogonalEdgeStyle;rounded=0;orthogonalLoop=1;jettySize=auto;html=1;exitX=0.5;exitY=0;exitDx=0;exitDy=0;" edge="1" parent="1" source="OITSv9a3_Jy2k-vIYUEM-53" target="OITSv9a3_Jy2k-vIYUEM-55">
          <mxGeometry relative="1" as="geometry" />
        </mxCell>
        <mxCell id="OITSv9a3_Jy2k-vIYUEM-53" value="send menu" style="rounded=0;whiteSpace=wrap;html=1;" vertex="1" parent="1">
          <mxGeometry x="-1660" y="560" width="120" height="60" as="geometry" />
        </mxCell>
        <mxCell id="OITSv9a3_Jy2k-vIYUEM-55" value="Write action to db&lt;div&gt;&amp;nbsp;-&amp;nbsp;&lt;/div&gt;&lt;div&gt;menu_sent&lt;/div&gt;" style="shape=note;whiteSpace=wrap;html=1;backgroundOutline=1;darkOpacity=0.05;" vertex="1" parent="1">
          <mxGeometry x="-1670" y="420" width="130" height="100" as="geometry" />
        </mxCell>
        <mxCell id="OITSv9a3_Jy2k-vIYUEM-82" style="edgeStyle=orthogonalEdgeStyle;rounded=0;orthogonalLoop=1;jettySize=auto;html=1;exitX=0.5;exitY=1;exitDx=0;exitDy=0;entryX=0.25;entryY=0;entryDx=0;entryDy=0;" edge="1" parent="1" source="OITSv9a3_Jy2k-vIYUEM-57" target="ylh-goKrjrxt4eU4eb-0-49">
          <mxGeometry relative="1" as="geometry">
            <Array as="points">
              <mxPoint x="180" y="2050" />
              <mxPoint x="380" y="2050" />
            </Array>
          </mxGeometry>
        </mxCell>
        <mxCell id="OITSv9a3_Jy2k-vIYUEM-57" value="Choose&amp;nbsp;&lt;span style=&quot;text-align: left;&quot;&gt;language from list&lt;/span&gt;" style="rounded=0;whiteSpace=wrap;html=1;" vertex="1" parent="1">
          <mxGeometry x="120" y="1600" width="120" height="60" as="geometry" />
        </mxCell>
        <mxCell id="OITSv9a3_Jy2k-vIYUEM-62" style="edgeStyle=orthogonalEdgeStyle;rounded=0;orthogonalLoop=1;jettySize=auto;html=1;exitX=0.5;exitY=1;exitDx=0;exitDy=0;entryX=0.5;entryY=0;entryDx=0;entryDy=0;" edge="1" parent="1" source="OITSv9a3_Jy2k-vIYUEM-59" target="OITSv9a3_Jy2k-vIYUEM-61">
          <mxGeometry relative="1" as="geometry" />
        </mxCell>
        <mxCell id="OITSv9a3_Jy2k-vIYUEM-59" value="Choose detaile" style="rounded=0;whiteSpace=wrap;html=1;" vertex="1" parent="1">
          <mxGeometry x="270" y="1600" width="120" height="60" as="geometry" />
        </mxCell>
        <mxCell id="OITSv9a3_Jy2k-vIYUEM-81" style="edgeStyle=orthogonalEdgeStyle;rounded=0;orthogonalLoop=1;jettySize=auto;html=1;exitX=0.5;exitY=1;exitDx=0;exitDy=0;entryX=0.5;entryY=0;entryDx=0;entryDy=0;" edge="1" parent="1" source="OITSv9a3_Jy2k-vIYUEM-61" target="ylh-goKrjrxt4eU4eb-0-42">
          <mxGeometry relative="1" as="geometry" />
        </mxCell>
        <mxCell id="OITSv9a3_Jy2k-vIYUEM-61" value="insert new detail" style="rounded=0;whiteSpace=wrap;html=1;" vertex="1" parent="1">
          <mxGeometry x="270" y="1680" width="120" height="60" as="geometry" />
        </mxCell>
        <mxCell id="OITSv9a3_Jy2k-vIYUEM-85" style="edgeStyle=orthogonalEdgeStyle;rounded=0;orthogonalLoop=1;jettySize=auto;html=1;exitX=1;exitY=0.5;exitDx=0;exitDy=0;entryX=0.5;entryY=0;entryDx=0;entryDy=0;" edge="1" parent="1" source="OITSv9a3_Jy2k-vIYUEM-63" target="OITSv9a3_Jy2k-vIYUEM-84">
          <mxGeometry relative="1" as="geometry" />
        </mxCell>
        <mxCell id="OITSv9a3_Jy2k-vIYUEM-63" value="enter ticker" style="rounded=0;whiteSpace=wrap;html=1;" vertex="1" parent="1">
          <mxGeometry x="1060" y="1600" width="120" height="60" as="geometry" />
        </mxCell>
        <mxCell id="OITSv9a3_Jy2k-vIYUEM-73" style="edgeStyle=orthogonalEdgeStyle;rounded=0;orthogonalLoop=1;jettySize=auto;html=1;exitX=0.25;exitY=1;exitDx=0;exitDy=0;entryX=0.5;entryY=0;entryDx=0;entryDy=0;" edge="1" parent="1" source="OITSv9a3_Jy2k-vIYUEM-68" target="OITSv9a3_Jy2k-vIYUEM-71">
          <mxGeometry relative="1" as="geometry" />
        </mxCell>
        <mxCell id="OITSv9a3_Jy2k-vIYUEM-75" style="edgeStyle=orthogonalEdgeStyle;rounded=0;orthogonalLoop=1;jettySize=auto;html=1;exitX=0.75;exitY=1;exitDx=0;exitDy=0;" edge="1" parent="1" source="OITSv9a3_Jy2k-vIYUEM-68" target="OITSv9a3_Jy2k-vIYUEM-70">
          <mxGeometry relative="1" as="geometry" />
        </mxCell>
        <mxCell id="OITSv9a3_Jy2k-vIYUEM-68" value="check if ticker exist&amp;nbsp;" style="rounded=0;whiteSpace=wrap;html=1;" vertex="1" parent="1">
          <mxGeometry x="1060" y="1680" width="120" height="60" as="geometry" />
        </mxCell>
        <mxCell id="OITSv9a3_Jy2k-vIYUEM-79" style="edgeStyle=orthogonalEdgeStyle;rounded=0;orthogonalLoop=1;jettySize=auto;html=1;exitX=1;exitY=0.5;exitDx=0;exitDy=0;entryX=0;entryY=0.5;entryDx=0;entryDy=0;" edge="1" parent="1" source="OITSv9a3_Jy2k-vIYUEM-70" target="OITSv9a3_Jy2k-vIYUEM-76">
          <mxGeometry relative="1" as="geometry" />
        </mxCell>
        <mxCell id="OITSv9a3_Jy2k-vIYUEM-70" value="Yes" style="ellipse;whiteSpace=wrap;html=1;" vertex="1" parent="1">
          <mxGeometry x="1160" y="1780" width="120" height="80" as="geometry" />
        </mxCell>
        <mxCell id="OITSv9a3_Jy2k-vIYUEM-74" style="edgeStyle=orthogonalEdgeStyle;rounded=0;orthogonalLoop=1;jettySize=auto;html=1;exitX=0.5;exitY=1;exitDx=0;exitDy=0;entryX=0.5;entryY=0;entryDx=0;entryDy=0;" edge="1" parent="1" source="OITSv9a3_Jy2k-vIYUEM-71" target="OITSv9a3_Jy2k-vIYUEM-72">
          <mxGeometry relative="1" as="geometry" />
        </mxCell>
        <mxCell id="OITSv9a3_Jy2k-vIYUEM-71" value="No" style="ellipse;whiteSpace=wrap;html=1;" vertex="1" parent="1">
          <mxGeometry x="1000" y="1780" width="120" height="80" as="geometry" />
        </mxCell>
        <mxCell id="OITSv9a3_Jy2k-vIYUEM-72" value="&amp;nbsp;return &quot;ticker don&#39;t exist&quot;" style="rounded=0;whiteSpace=wrap;html=1;" vertex="1" parent="1">
          <mxGeometry x="1000" y="1890" width="120" height="60" as="geometry" />
        </mxCell>
        <mxCell id="OITSv9a3_Jy2k-vIYUEM-93" style="edgeStyle=orthogonalEdgeStyle;rounded=0;orthogonalLoop=1;jettySize=auto;html=1;exitX=0.5;exitY=1;exitDx=0;exitDy=0;entryX=0.5;entryY=0;entryDx=0;entryDy=0;" edge="1" parent="1" source="OITSv9a3_Jy2k-vIYUEM-76" target="OITSv9a3_Jy2k-vIYUEM-88">
          <mxGeometry relative="1" as="geometry" />
        </mxCell>
        <mxCell id="OITSv9a3_Jy2k-vIYUEM-101" style="edgeStyle=orthogonalEdgeStyle;rounded=0;orthogonalLoop=1;jettySize=auto;html=1;exitX=1;exitY=0;exitDx=0;exitDy=0;entryX=0.5;entryY=1;entryDx=0;entryDy=0;" edge="1" parent="1" source="OITSv9a3_Jy2k-vIYUEM-76" target="OITSv9a3_Jy2k-vIYUEM-99">
          <mxGeometry relative="1" as="geometry" />
        </mxCell>
        <mxCell id="OITSv9a3_Jy2k-vIYUEM-104" style="edgeStyle=orthogonalEdgeStyle;rounded=0;orthogonalLoop=1;jettySize=auto;html=1;exitX=0;exitY=1;exitDx=0;exitDy=0;entryX=0.5;entryY=0;entryDx=0;entryDy=0;" edge="1" parent="1" source="OITSv9a3_Jy2k-vIYUEM-76" target="OITSv9a3_Jy2k-vIYUEM-103">
          <mxGeometry relative="1" as="geometry" />
        </mxCell>
        <mxCell id="OITSv9a3_Jy2k-vIYUEM-76" value="check user plan - and how many tickers he have:&lt;div&gt;amount_tickers_have &amp;lt; amount_tickers_allowed&lt;/div&gt;&lt;div&gt;and if ticker not in user ticker&amp;nbsp;&lt;/div&gt;" style="rounded=0;whiteSpace=wrap;html=1;" vertex="1" parent="1">
          <mxGeometry x="1330" y="1755" width="380" height="130" as="geometry" />
        </mxCell>
        <mxCell id="OITSv9a3_Jy2k-vIYUEM-86" style="edgeStyle=orthogonalEdgeStyle;rounded=0;orthogonalLoop=1;jettySize=auto;html=1;exitX=0;exitY=0.5;exitDx=0;exitDy=0;entryX=1;entryY=0.5;entryDx=0;entryDy=0;" edge="1" parent="1" source="OITSv9a3_Jy2k-vIYUEM-84" target="OITSv9a3_Jy2k-vIYUEM-68">
          <mxGeometry relative="1" as="geometry" />
        </mxCell>
        <mxCell id="OITSv9a3_Jy2k-vIYUEM-84" value="Check input not&amp;nbsp;malicious" style="rounded=0;whiteSpace=wrap;html=1;" vertex="1" parent="1">
          <mxGeometry x="1230" y="1650" width="120" height="60" as="geometry" />
        </mxCell>
        <mxCell id="OITSv9a3_Jy2k-vIYUEM-91" style="edgeStyle=orthogonalEdgeStyle;rounded=0;orthogonalLoop=1;jettySize=auto;html=1;exitX=0.5;exitY=1;exitDx=0;exitDy=0;entryX=0.5;entryY=0;entryDx=0;entryDy=0;" edge="1" parent="1" source="OITSv9a3_Jy2k-vIYUEM-88" target="OITSv9a3_Jy2k-vIYUEM-89">
          <mxGeometry relative="1" as="geometry" />
        </mxCell>
        <mxCell id="OITSv9a3_Jy2k-vIYUEM-88" value="no place for more ticker" style="ellipse;whiteSpace=wrap;html=1;" vertex="1" parent="1">
          <mxGeometry x="1460" y="1930" width="120" height="80" as="geometry" />
        </mxCell>
        <mxCell id="OITSv9a3_Jy2k-vIYUEM-92" style="edgeStyle=orthogonalEdgeStyle;rounded=0;orthogonalLoop=1;jettySize=auto;html=1;exitX=0;exitY=0.75;exitDx=0;exitDy=0;entryX=1;entryY=0.25;entryDx=0;entryDy=0;" edge="1" parent="1" source="OITSv9a3_Jy2k-vIYUEM-89" target="ylh-goKrjrxt4eU4eb-0-49">
          <mxGeometry relative="1" as="geometry" />
        </mxCell>
        <mxCell id="OITSv9a3_Jy2k-vIYUEM-89" value="Choose a ticker to switch" style="rounded=0;whiteSpace=wrap;html=1;" vertex="1" parent="1">
          <mxGeometry x="1460" y="2050" width="120" height="60" as="geometry" />
        </mxCell>
        <mxCell id="OITSv9a3_Jy2k-vIYUEM-105" style="edgeStyle=orthogonalEdgeStyle;rounded=0;orthogonalLoop=1;jettySize=auto;html=1;exitX=0.5;exitY=0;exitDx=0;exitDy=0;entryX=1;entryY=0.5;entryDx=0;entryDy=0;" edge="1" parent="1" source="OITSv9a3_Jy2k-vIYUEM-96" target="pGtjoR-2ih055X52a59Z-43">
          <mxGeometry relative="1" as="geometry" />
        </mxCell>
        <mxCell id="OITSv9a3_Jy2k-vIYUEM-96" value="send message &quot;Ticker already in your list&quot;" style="rounded=0;whiteSpace=wrap;html=1;" vertex="1" parent="1">
          <mxGeometry x="1640" y="1510" width="140" height="60" as="geometry" />
        </mxCell>
        <mxCell id="OITSv9a3_Jy2k-vIYUEM-102" style="edgeStyle=orthogonalEdgeStyle;rounded=0;orthogonalLoop=1;jettySize=auto;html=1;exitX=0.5;exitY=0;exitDx=0;exitDy=0;entryX=0.5;entryY=1;entryDx=0;entryDy=0;" edge="1" parent="1" source="OITSv9a3_Jy2k-vIYUEM-99" target="OITSv9a3_Jy2k-vIYUEM-96">
          <mxGeometry relative="1" as="geometry" />
        </mxCell>
        <mxCell id="OITSv9a3_Jy2k-vIYUEM-99" value="ticker already exist in user list" style="ellipse;whiteSpace=wrap;html=1;" vertex="1" parent="1">
          <mxGeometry x="1650" y="1620" width="120" height="80" as="geometry" />
        </mxCell>
        <mxCell id="OITSv9a3_Jy2k-vIYUEM-106" style="edgeStyle=orthogonalEdgeStyle;rounded=0;orthogonalLoop=1;jettySize=auto;html=1;exitX=0.5;exitY=1;exitDx=0;exitDy=0;entryX=0.75;entryY=0;entryDx=0;entryDy=0;" edge="1" parent="1" source="OITSv9a3_Jy2k-vIYUEM-103" target="ylh-goKrjrxt4eU4eb-0-49">
          <mxGeometry relative="1" as="geometry" />
        </mxCell>
        <mxCell id="OITSv9a3_Jy2k-vIYUEM-103" value="have place for more ticker" style="ellipse;whiteSpace=wrap;html=1;" vertex="1" parent="1">
          <mxGeometry x="1310" y="1930" width="120" height="80" as="geometry" />
        </mxCell>
        <mxCell id="OITSv9a3_Jy2k-vIYUEM-111" style="edgeStyle=orthogonalEdgeStyle;rounded=0;orthogonalLoop=1;jettySize=auto;html=1;exitX=0.25;exitY=1;exitDx=0;exitDy=0;entryX=0.5;entryY=0;entryDx=0;entryDy=0;" edge="1" parent="1" source="OITSv9a3_Jy2k-vIYUEM-107" target="OITSv9a3_Jy2k-vIYUEM-110">
          <mxGeometry relative="1" as="geometry" />
        </mxCell>
        <mxCell id="OITSv9a3_Jy2k-vIYUEM-115" style="edgeStyle=orthogonalEdgeStyle;rounded=0;orthogonalLoop=1;jettySize=auto;html=1;exitX=0.75;exitY=1;exitDx=0;exitDy=0;entryX=0;entryY=0;entryDx=0;entryDy=0;" edge="1" parent="1" source="OITSv9a3_Jy2k-vIYUEM-107" target="OITSv9a3_Jy2k-vIYUEM-109">
          <mxGeometry relative="1" as="geometry" />
        </mxCell>
        <mxCell id="OITSv9a3_Jy2k-vIYUEM-107" value="If eligible to&lt;span style=&quot;color: rgba(0, 0, 0, 0); font-family: monospace; font-size: 0px; text-align: start; text-wrap-mode: nowrap;&quot;&gt;%3CmxGraphModel%3E%3Croot%3E%3CmxCell%20id%3D%220%22%2F%3E%3CmxCell%20id%3D%221%22%20parent%3D%220%22%2F%3E%3CmxCell%20id%3D%222%22%20value%3D%22have%20place%20for%20more%20ticker%22%20style%3D%22ellipse%3BwhiteSpace%3Dwrap%3Bhtml%3D1%3B%22%20vertex%3D%221%22%20parent%3D%221%22%3E%3CmxGeometry%20x%3D%221070%22%20y%3D%221370%22%20width%3D%22120%22%20height%3D%2280%22%20as%3D%22geometry%22%2F%3E%3C%2FmxCell%3E%3C%2Froot%3E%3C%2FmxGraphModel%3E&lt;/span&gt;&amp;nbsp;weights" style="rounded=0;whiteSpace=wrap;html=1;" vertex="1" parent="1">
          <mxGeometry x="620" y="1390" width="120" height="60" as="geometry" />
        </mxCell>
        <mxCell id="OITSv9a3_Jy2k-vIYUEM-117" style="edgeStyle=orthogonalEdgeStyle;rounded=0;orthogonalLoop=1;jettySize=auto;html=1;exitX=0.5;exitY=1;exitDx=0;exitDy=0;entryX=0.5;entryY=0;entryDx=0;entryDy=0;" edge="1" parent="1" source="OITSv9a3_Jy2k-vIYUEM-109" target="OITSv9a3_Jy2k-vIYUEM-116">
          <mxGeometry relative="1" as="geometry" />
        </mxCell>
        <mxCell id="OITSv9a3_Jy2k-vIYUEM-109" value="Yes" style="ellipse;whiteSpace=wrap;html=1;" vertex="1" parent="1">
          <mxGeometry x="730" y="1480" width="120" height="80" as="geometry" />
        </mxCell>
        <mxCell id="OITSv9a3_Jy2k-vIYUEM-113" style="edgeStyle=orthogonalEdgeStyle;rounded=0;orthogonalLoop=1;jettySize=auto;html=1;exitX=0;exitY=0.5;exitDx=0;exitDy=0;entryX=0.5;entryY=1;entryDx=0;entryDy=0;" edge="1" parent="1" source="OITSv9a3_Jy2k-vIYUEM-110" target="OITSv9a3_Jy2k-vIYUEM-112">
          <mxGeometry relative="1" as="geometry" />
        </mxCell>
        <mxCell id="OITSv9a3_Jy2k-vIYUEM-110" value="No" style="ellipse;whiteSpace=wrap;html=1;" vertex="1" parent="1">
          <mxGeometry x="570" y="1480" width="120" height="80" as="geometry" />
        </mxCell>
        <mxCell id="OITSv9a3_Jy2k-vIYUEM-112" value="send message - &quot;Unfortunately your plan don&#39;t contain weights, change plan in order to control weights" style="rounded=0;whiteSpace=wrap;html=1;" vertex="1" parent="1">
          <mxGeometry x="425" y="1400" width="140" height="80" as="geometry" />
        </mxCell>
        <mxCell id="OITSv9a3_Jy2k-vIYUEM-114" style="edgeStyle=orthogonalEdgeStyle;rounded=0;orthogonalLoop=1;jettySize=auto;html=1;exitX=0.25;exitY=0;exitDx=0;exitDy=0;entryX=0.625;entryY=1.05;entryDx=0;entryDy=0;entryPerimeter=0;" edge="1" parent="1" source="OITSv9a3_Jy2k-vIYUEM-112" target="pGtjoR-2ih055X52a59Z-43">
          <mxGeometry relative="1" as="geometry" />
        </mxCell>
        <mxCell id="OITSv9a3_Jy2k-vIYUEM-119" style="edgeStyle=orthogonalEdgeStyle;rounded=0;orthogonalLoop=1;jettySize=auto;html=1;exitX=0.5;exitY=1;exitDx=0;exitDy=0;entryX=0.5;entryY=0;entryDx=0;entryDy=0;" edge="1" parent="1" source="OITSv9a3_Jy2k-vIYUEM-116" target="OITSv9a3_Jy2k-vIYUEM-118">
          <mxGeometry relative="1" as="geometry" />
        </mxCell>
        <mxCell id="OITSv9a3_Jy2k-vIYUEM-116" value="send message - &quot;enter your weights, keep the same format as provide&quot; +&lt;br&gt;weights format" style="rounded=0;whiteSpace=wrap;html=1;" vertex="1" parent="1">
          <mxGeometry x="730" y="1595" width="150" height="110" as="geometry" />
        </mxCell>
        <mxCell id="OITSv9a3_Jy2k-vIYUEM-121" style="edgeStyle=orthogonalEdgeStyle;rounded=0;orthogonalLoop=1;jettySize=auto;html=1;exitX=0.5;exitY=1;exitDx=0;exitDy=0;entryX=0.5;entryY=0;entryDx=0;entryDy=0;" edge="1" parent="1" source="OITSv9a3_Jy2k-vIYUEM-118" target="OITSv9a3_Jy2k-vIYUEM-120">
          <mxGeometry relative="1" as="geometry" />
        </mxCell>
        <mxCell id="OITSv9a3_Jy2k-vIYUEM-118" value="wait for input" style="rounded=0;whiteSpace=wrap;html=1;" vertex="1" parent="1">
          <mxGeometry x="745" y="1730" width="120" height="60" as="geometry" />
        </mxCell>
        <mxCell id="OITSv9a3_Jy2k-vIYUEM-123" style="edgeStyle=orthogonalEdgeStyle;rounded=0;orthogonalLoop=1;jettySize=auto;html=1;exitX=0.25;exitY=1;exitDx=0;exitDy=0;entryX=1;entryY=0.5;entryDx=0;entryDy=0;" edge="1" parent="1" source="OITSv9a3_Jy2k-vIYUEM-120" target="ylh-goKrjrxt4eU4eb-0-47">
          <mxGeometry relative="1" as="geometry" />
        </mxCell>
        <mxCell id="OITSv9a3_Jy2k-vIYUEM-120" value="Check input not&amp;nbsp;malicious" style="rounded=0;whiteSpace=wrap;html=1;" vertex="1" parent="1">
          <mxGeometry x="750" y="1810" width="120" height="60" as="geometry" />
        </mxCell>
        <mxCell id="OITSv9a3_Jy2k-vIYUEM-124" value="Write action to db&lt;div&gt;table:&amp;nbsp;fact_users_data_table&lt;br&gt;&lt;div&gt;-&lt;/div&gt;&lt;div&gt;relevant field for the&amp;nbsp;telegram_user_id&lt;/div&gt;&lt;/div&gt;&lt;div&gt;user_weights - if weights change&lt;/div&gt;&lt;div&gt;tickers -&amp;nbsp; if&amp;nbsp;tickers change&lt;/div&gt;&lt;div&gt;email - if&amp;nbsp;email changed&lt;/div&gt;&lt;div&gt;full_name - if full name changed&lt;/div&gt;&lt;div&gt;update_amount - add 1 to the value&lt;/div&gt;" style="shape=note;whiteSpace=wrap;html=1;backgroundOutline=1;darkOpacity=0.05;" vertex="1" parent="1">
          <mxGeometry x="425" y="2380" width="205" height="160" as="geometry" />
        </mxCell>
        <mxCell id="OITSv9a3_Jy2k-vIYUEM-125" style="edgeStyle=orthogonalEdgeStyle;rounded=0;orthogonalLoop=1;jettySize=auto;html=1;exitX=0.25;exitY=1;exitDx=0;exitDy=0;entryX=0.5;entryY=0;entryDx=0;entryDy=0;entryPerimeter=0;" edge="1" parent="1" source="ylh-goKrjrxt4eU4eb-0-53" target="OITSv9a3_Jy2k-vIYUEM-124">
          <mxGeometry relative="1" as="geometry" />
        </mxCell>
      </root>
    </mxGraphModel>
  </diagram>
</mxfile>
